<?xml version="1.0" encoding="UTF-8"?>
<svg width="198px" height="53px" viewBox="0 0 198 53" version="1.1" xmlns="http://www.w3.org/2000/svg" xmlns:xlink="http://www.w3.org/1999/xlink">
    <!-- Generator: Sketch 48.2 (47327) - http://www.bohemiancoding.com/sketch -->
    <title>approved</title>
    <desc>Created with Sketch.</desc>
    <defs>
        <polygon id="path-1" points="1.3862923e-20 51.5742188 196.674819 51.5742188 196.674819 0 0 0"></polygon>
    </defs>
    <g id="Hydroshield-Wire-Copy" stroke="none" stroke-width="1" fill="none" fill-rule="evenodd" transform="translate(-131.000000, -4310.000000)">
        <g id="approved" transform="translate(131.578125, 4310.689531)">
            <mask id="mask-2" fill="white">
                <use xlink:href="#path-1"></use>
            </mask>
            <g id="path-1"></g>
            <path d="M194.317795,40.3696166 C194.317795,41.3690591 193.912726,41.8871556 193.188511,41.8871556 C192.47657,41.8871556 192.0715,41.381395 192.0715,40.3822092 L192.0715,40.2832675 C192.0715,39.2470748 192.464295,38.7536497 193.200785,38.7536497 C193.925,38.7536497 194.317795,39.2964175 194.317795,40.2709316 L194.317795,40.3696166 Z M194.256677,34.3249036 L194.256677,38.0135124 C193.900451,37.3594672 193.298984,36.9523916 192.292447,36.9523916 C190.831486,36.9523916 189.616278,38.0749335 189.616278,40.320531 L189.616278,40.4189592 C189.616278,42.6889712 190.843761,43.7374993 192.292447,43.7374993 C193.262159,43.7374993 193.937531,43.2070673 194.256677,42.5409435 L194.256677,43.5771362 L196.674819,43.5771362 L196.674819,34.3249036 L194.256677,34.3249036 Z M186.535294,43.5773929 L188.941418,43.5773929 L188.941418,34.3249036 L186.535294,34.3249036 L186.535294,43.5773929 Z M182.54674,38.5069375 C183.197306,38.5069375 183.528727,38.9263486 183.553021,39.6171437 L181.441749,39.6171437 C181.539948,38.8893418 181.957292,38.5069375 182.54674,38.5069375 Z M182.632664,42.0845256 C181.945018,42.0845256 181.490849,41.6651144 181.429474,40.8879698 L185.885495,40.8879698 L185.885495,40.295603 C185.885495,37.9762485 184.351141,36.940056 182.54674,36.940056 C180.582511,36.940056 178.986526,38.2352966 178.986526,40.3326098 L178.986526,40.4312947 C178.986526,42.5656149 180.496587,43.7374993 182.54674,43.7374993 C184.584363,43.7374993 185.701628,42.8740056 185.89777,41.3934734 L183.6392,41.3934734 C183.565552,41.7637993 183.307524,42.0845256 182.632664,42.0845256 Z M175.905543,43.5771362 L178.311666,43.5771362 L178.311666,37.1250904 L175.905543,37.1250904 L175.905543,43.5771362 Z M178.409865,35.4227742 C178.409865,36.1259048 177.845222,36.6440011 177.108733,36.6440011 C176.359712,36.6440011 175.79507,36.1259048 175.79507,35.4227742 C175.79507,34.707308 176.359712,34.1889547 177.108733,34.1889547 C177.845222,34.1889547 178.409865,34.707308 178.409865,35.4227742 Z M174.961148,39.3334243 L174.961148,43.5771362 L172.543006,43.5771362 L172.543006,39.8761918 C172.543006,39.2224035 172.309528,38.8893418 171.732611,38.8893418 C171.131144,38.8893418 170.774918,39.2470748 170.774918,40.0118836 L170.774918,43.5771362 L168.35652,43.5771362 L168.35652,34.3249036 L170.774918,34.3249036 L170.774918,38.1612829 C171.131144,37.4830805 171.818534,36.9523916 172.89872,36.9523916 C174.114184,36.9523916 174.961148,37.729793 174.961148,39.3334243 Z M167.829213,41.4674874 C167.829213,43.0590397 166.626279,43.7374993 164.809348,43.7374993 C162.931298,43.7374993 161.826307,42.9603547 161.789483,41.5047513 L163.998953,41.5047513 C164.072858,41.9241624 164.244706,42.170875 164.797329,42.170875 C165.263773,42.170875 165.472189,41.9858406 165.472189,41.7142 C165.472189,41.4307373 165.202399,41.28271 164.342905,41.1716892 C162.612153,40.9743193 161.850857,40.5053087 161.850857,39.1237185 C161.850857,37.6434436 163.139971,36.940056 164.711405,36.940056 C166.380783,36.940056 167.497793,37.4951591 167.645091,39.0743763 L165.472189,39.0743763 C165.39854,38.6919719 165.190124,38.4696735 164.747974,38.4696735 C164.30608,38.4696735 164.109682,38.6673006 164.109682,38.9140132 C164.109682,39.210068 164.404279,39.3334243 165.116475,39.4074379 C166.969975,39.6294792 167.829213,40.0738188 167.829213,41.4674874 Z M159.064981,40.3822092 C159.064981,41.4060663 158.696736,41.9488338 157.960246,41.9488338 C157.186931,41.9488338 156.818686,41.4060663 156.818686,40.3572811 L156.818686,40.2585961 C156.818686,39.2470748 157.223756,38.7413142 157.960246,38.7413142 C158.709267,38.7413142 159.064981,39.2840817 159.064981,40.295603 L159.064981,40.3822092 Z M157.960246,36.9523916 C155.934643,36.9523916 154.375738,38.2352966 154.375738,40.3326098 L154.375738,40.4312947 C154.375738,42.5532794 155.946917,43.7374993 157.947971,43.7374993 C159.949025,43.7374993 161.520204,42.4916012 161.520204,40.3696166 L161.520204,40.2709316 C161.520204,38.1985467 159.9613,36.9523916 157.960246,36.9523916 Z M154.093929,37.038741 L154.093929,39.308753 C152.755972,39.2347394 152.031756,39.6788219 152.031756,40.6039937 L152.031756,43.5771362 L149.613359,43.5771362 L149.613359,37.1250904 L152.031756,37.1250904 L152.031756,38.4329236 C152.436826,37.433481 153.136492,37.0264054 154.093929,37.038741 Z M146.348508,40.3696166 C146.348508,41.3690591 145.943438,41.8871556 145.219223,41.8871556 C144.507283,41.8871556 144.102213,41.381395 144.102213,40.3822092 L144.102213,40.2832675 C144.102213,39.2470748 144.495008,38.7536497 145.231498,38.7536497 C145.955713,38.7536497 146.348508,39.2964175 146.348508,40.2709316 L146.348508,40.3696166 Z M146.287389,38.0135124 C145.931164,37.3594672 145.329697,36.9523916 144.32316,36.9523916 C142.862199,36.9523916 141.646991,38.0749335 141.646991,40.320531 L141.646991,40.4189592 C141.646991,42.6889712 142.874474,43.7374993 144.32316,43.7374993 C145.292872,43.7374993 145.968244,43.2070673 146.287389,42.5409435 L146.287389,43.5771362 L148.705532,43.5771362 L148.705532,34.3249036 L146.287389,34.3249036 L146.287389,38.0135124 Z M141.7948,37.1250904 L138.369866,45.7237918 L136.074215,45.7237918 L137.117577,42.9356837 L134.552136,37.1250904 L137.166932,37.1250904 L138.382396,40.3449452 L139.511681,37.1250904 L141.7948,37.1250904 Z M131.275267,34.7563935 L134.06191,34.7563935 L134.06191,43.5771362 L131.275267,43.5771362 L131.275267,40.1845821 L128.697551,40.1845821 L128.697551,43.5771362 L125.910652,43.5771362 L125.910652,34.7563935 L128.697551,34.7563935 L128.697551,38.0135124 L131.275267,38.0135124 L131.275267,34.7563935 Z M120.988955,37.1250904 L123.27233,37.1250904 L119.84714,45.7237918 L117.551745,45.7237918 L118.595107,42.9356837 L116.02941,37.1250904 L118.644206,37.1250904 L119.85967,40.3449452 L120.988955,37.1250904 Z M113.722253,40.3822092 C113.722253,41.3690591 113.317183,41.8871556 112.592968,41.8871556 C111.856222,41.8871556 111.463427,41.381395 111.463427,40.3822092 L111.463427,40.2832675 C111.463427,39.2964175 111.868753,38.7536497 112.580693,38.7536497 C113.304908,38.7536497 113.722253,39.2470748 113.722253,40.2832675 L113.722253,40.3822092 Z M113.489031,36.9523916 C112.519319,36.9523916 111.881028,37.4584093 111.524802,38.0625979 L111.524802,34.3249036 L109.106404,34.3249036 L109.106404,43.5771362 L111.524802,43.5771362 L111.524802,42.5902862 C111.843947,43.2810809 112.531594,43.7374993 113.476756,43.7374993 C114.937717,43.7374993 116.177475,42.6642998 116.177475,40.4068805 L116.177475,40.3081955 C116.177475,38.0505193 114.949992,36.9523916 113.489031,36.9523916 Z M184.722966,22.0393924 L184.722966,21.788568 C184.722966,18.9356978 185.846113,17.5245538 187.936415,17.5245538 C189.995263,17.5245538 191.149609,18.9984039 191.149609,21.757215 L191.149609,22.0080394 C191.149609,24.7982035 189.901668,26.2090905 187.874018,26.2090905 C185.939709,26.2090905 184.722966,24.7982035 184.722966,22.0393924 Z M190.993617,27.4632124 L190.993617,30.1279643 L196.577899,30.1279643 L196.577899,6.52040562 L190.993617,6.52040562 L190.993617,16.0512176 C190.05766,14.3895062 188.528932,13.2924066 185.970908,13.2924066 C182.102289,13.2924066 179.045088,16.2709459 179.045088,21.8512741 L179.045088,22.1020985 C179.045088,27.7767428 182.133488,30.5042008 185.908511,30.5042008 C188.373195,30.5042008 190.182455,29.1560199 190.993617,27.4632124 Z M167.283239,20.0641505 C167.564026,18.0891656 168.718372,16.991809 170.402837,16.991809 C172.212352,16.991809 173.179507,18.0891656 173.273103,20.0641505 L167.283239,20.0641505 Z M170.402837,13.2924066 C165.473724,13.2924066 161.574162,16.6155725 161.574162,21.8826272 L161.574162,22.1334515 C161.574162,27.4945654 165.317986,30.5042008 170.434035,30.5042008 C175.363404,30.5042008 178.20196,28.4035468 178.701392,24.7044013 L173.460038,24.7044013 C173.241904,25.8015009 172.461941,26.6480332 170.621227,26.6480332 C168.62452,26.6480332 167.376834,25.3941683 167.220842,23.2308082 L178.701392,23.2308082 L178.701392,21.757215 C178.701392,15.8633563 174.864228,13.2924066 170.402837,13.2924066 Z M150.717071,30.1279643 L144.727207,13.7313492 L150.685872,13.7313492 L154.086513,24.2968117 L157.424501,13.7313492 L162.759195,13.7313492 L156.80053,30.1279643 L150.717071,30.1279643 Z M133.589073,21.725862 C133.589073,18.9670509 134.743419,17.4932007 136.833721,17.4932007 C138.954966,17.4932007 140.046915,19.029757 140.046915,21.788568 L140.046915,22.0393924 C140.046915,24.7668504 138.923767,26.3345027 136.833721,26.3345027 C134.681022,26.3345027 133.589073,24.7982035 133.589073,21.9766863 L133.589073,21.725862 Z M136.802522,30.5042008 C141.824976,30.5042008 145.724537,27.3064471 145.724537,21.9766863 L145.724537,21.725862 C145.724537,16.5215133 141.85643,13.2924066 136.833721,13.2924066 C131.779558,13.2924066 127.879996,16.6155725 127.879996,21.8826272 L127.879996,22.1334515 C127.879996,27.4318593 131.779558,30.5042008 136.802522,30.5042008 Z M122.388798,30.1279643 L116.804515,30.1279643 L116.804515,13.7313492 L122.388798,13.7313492 L122.388798,16.991809 C123.418094,14.5465284 125.134013,13.4802678 127.661095,13.5116209 L127.661095,18.7473226 C124.260454,18.6535204 122.388798,19.719267 122.388798,22.3529229 L122.388798,30.1279643 Z M109.878184,22.0393924 C109.878184,24.7354974 108.755036,26.2090905 106.664734,26.2090905 C104.637085,26.2090905 103.420342,24.7982035 103.420342,22.0080394 L103.420342,21.757215 C103.420342,18.9984039 104.637085,17.5245538 106.664734,17.5245538 C108.630242,17.5245538 109.878184,18.9043448 109.878184,21.788568 L109.878184,22.0393924 Z M115.556062,22.0393924 L115.556062,21.788568 C115.556062,16.1766298 112.467663,13.2924066 108.661441,13.2924066 C106.196756,13.2924066 104.512291,14.6092345 103.576335,16.1766298 L103.576335,13.7313492 L97.9920521,13.7313492 L97.9920521,35.6144904 L103.576335,35.6144904 L103.576335,27.7140367 C104.387497,29.3443951 106.165558,30.5042008 108.630242,30.5042008 C112.467663,30.5042008 115.556062,27.6826837 115.556062,22.0393924 Z M91.0654652,22.0393924 C91.0654652,24.7354974 89.9425732,26.2090905 87.8522713,26.2090905 C85.8243665,26.2090905 84.6076232,24.7982035 84.6076232,22.0080394 L84.6076232,21.757215 C84.6076232,18.9984039 85.8243665,17.5245538 87.8522713,17.5245538 C89.8175234,17.5245538 91.0654652,18.9043448 91.0654652,21.788568 L91.0654652,22.0393924 Z M89.848722,13.2924066 C87.3842934,13.2924066 85.6998278,14.6092345 84.7638716,16.1766298 L84.7638716,13.7313492 L79.1795891,13.7313492 L79.1795891,35.6144904 L84.7638716,35.6144904 L84.7638716,27.7140367 C85.5750336,29.3443951 87.3530948,30.5042008 89.8175234,30.5042008 C93.6549436,30.5042008 96.7433433,27.6826837 96.7433433,22.0393924 L96.7433433,21.788568 C96.7433433,16.1766298 93.6549436,13.2924066 89.848722,13.2924066 Z M64.2664319,21.5377437 L66.7311165,12.91617 L69.1646025,21.5377437 L64.2664319,21.5377437 Z M63.0187461,7.71182134 L55.8745364,30.1279643 L61.8332018,30.1279643 L63.0187461,25.9582662 L70.4125439,25.9582662 L71.5978326,30.1279643 L78.3676601,30.1279643 L71.2858474,7.71182134 L63.0187461,7.71182134 Z M22.4959363,29.3564738 L17.3031698,24.1385045 L19.7343542,21.6947659 L23.7116564,25.6917653 L31.6665165,17.6975095 L34.097701,20.1412482 L24.9273765,29.3569877 C24.6026048,29.6833678 24.1706841,29.8632624 23.7116564,29.8632624 C23.252373,29.8632624 22.8204522,29.6833678 22.4959363,29.3564738 Z M3.58016015,3.59789053 L5.62596595,3.59789053 L5.62596595,23.8182923 C5.26999573,22.6631124 4.95315156,21.4835183 4.68821972,20.2895327 C4.26831806,18.3919024 3.96349303,16.4518684 3.7824392,14.52674 C3.64792747,13.0662534 3.58016015,11.602683 3.58016015,10.1768903 L3.58016015,3.59789053 Z M9.2061261,3.59789053 L11.2519319,3.59789053 L11.2519319,35.4849663 C10.5241365,34.4392651 9.84186025,33.3478193 9.2061261,32.2124279 L9.2061261,3.59789053 Z M14.8320921,34.8116468 C17.6593957,37.6347059 21.52469,39.2941044 25.7004354,39.2941044 C29.875925,39.2941044 33.7414751,37.6347059 36.5687787,34.8116468 L36.5687787,37.7544643 C33.4752646,40.1879233 29.6467947,41.5196566 25.7004354,41.5196566 C21.7538203,41.5196566 17.9256061,40.1879233 14.8320921,37.7544643 L14.8320921,34.8116468 Z M14.8320921,19.0379807 C16.715512,14.6778514 20.9447041,11.8781786 25.7004354,11.8781786 C30.4559109,11.8781786 34.6853587,14.6778514 36.5687787,19.0379807 L36.5687787,28.5364117 C34.6828015,32.8967981 30.4536094,35.6962139 25.7004354,35.6962139 C20.9472613,35.6962139 16.7180693,32.8967981 14.8320921,28.5364117 L14.8320921,19.0379807 Z M14.8320921,9.8173583 C17.9256061,7.38415632 21.754076,6.05216587 25.7004354,6.05216587 C29.6467947,6.05216587 33.4750089,7.38415632 36.5687787,9.8173583 L36.5687787,12.7606897 C33.7419865,9.93891557 29.8769479,8.28028805 25.7004354,8.28028805 C21.5239228,8.28028805 17.6586285,9.93891557 14.8320921,12.7606897 L14.8320921,9.8173583 Z M14.8320921,3.59789053 L18.8613066,3.59789053 C17.4594182,4.07769494 16.1084191,4.70192892 14.8320921,5.46673767 L14.8320921,3.59789053 Z M36.5687787,3.59789053 L36.5687787,5.46673767 C35.2924516,4.70192892 33.9411968,4.07769494 32.5395641,3.59789053 L36.5687787,3.59789053 Z M26.5256623,47.2600912 C26.257406,47.3908999 25.9865924,47.5199101 25.6991567,47.650976 C24.4629786,47.0861075 23.2490486,46.4428557 22.0806377,45.7330436 C21.3454263,45.287676 20.626837,44.8099274 19.9243584,44.3082789 C21.7906448,44.8389676 23.7328816,45.1175472 25.7004354,45.1175472 C27.6720807,45.1175472 29.6178977,44.8376828 31.4875085,44.3049381 C29.9145396,45.4274798 28.2461849,46.4215255 26.5256623,47.2600912 Z M40.148939,3.59789053 L42.1947447,3.59789053 L42.1947447,32.2147408 C41.560545,33.3442214 40.8767343,34.4354102 40.148939,35.4808544 L40.148939,3.59789053 Z M45.7749049,3.59789053 L47.8207106,3.59789053 L47.8207106,10.1768903 C47.8207106,10.8185998 47.8074129,11.4495156 47.7808172,12.0662969 C47.7631723,12.5664036 47.7317181,13.1150819 47.6854318,13.738802 C47.5887675,14.9952367 47.4412137,16.2529565 47.2471179,17.4788092 C46.9517547,19.3461143 46.5379905,21.2123916 46.0168215,23.0244434 C45.9388251,23.2947992 45.8577601,23.56387 45.7749049,23.8321699 L45.7749049,3.59789053 Z M0,10.1768903 C0,11.7126756 0.0731375574,13.2875237 0.217622592,14.8616008 C0.412997045,16.9386116 0.741348877,19.027701 1.19372768,21.0718168 C1.62206827,23.0005432 2.16548544,24.9012573 2.80761273,26.7169071 C3.49244623,28.6659358 4.30744411,30.5705048 5.22831245,32.3743329 C7.78608113,37.4088098 11.1537332,41.7247365 15.2343486,45.2000417 C16.794787,46.5343449 18.4761836,47.7504323 20.2304621,48.8133519 C21.7607249,49.7428925 23.3641251,50.5696365 24.9961667,51.2714819 L25.6999239,51.5742188 L26.4036811,51.2719961 C26.6658,51.1591764 26.9279189,51.0440439 27.1716255,50.9304532 C27.4810536,50.7898788 27.7881802,50.6439072 28.0901923,50.4961367 C29.989723,49.5704507 31.8335054,48.471809 33.5711617,47.2307939 C34.1186705,46.8393949 34.6677136,46.4243525 35.203459,45.9972314 C36.2084611,45.1956729 37.1843105,44.3329502 38.1010872,43.4360472 C39.5479835,42.0264453 40.9133031,40.4744697 42.1591989,38.8225236 C43.7457211,36.7167298 45.1619303,34.4179348 46.3620512,32.0029792 C46.446952,31.8356773 46.5285286,31.6709453 46.6001317,31.518806 C47.7457829,29.1457402 48.7065444,26.6246469 49.4558208,24.0244 C50.0184174,22.0692035 50.4646587,20.0566977 50.7827816,18.043935 C50.9919654,16.7237662 51.1507709,15.3689034 51.2553627,14.0117277 C51.3057407,13.3363522 51.3394964,12.7414153 51.3581647,12.2081565 C51.3865502,11.5538545 51.4008709,10.8702552 51.4008709,10.1768903 L51.4008709,0 L0,0 L0,10.1768903 Z" id="Fill-1" fill="#0C082D" fill-rule="nonzero" mask="url(#mask-2)"></path>
        </g>
    </g>
</svg>