<?xml version="1.0" encoding="UTF-8"?>
<svg width="42px" height="48px" viewBox="0 0 42 48" version="1.1" xmlns="http://www.w3.org/2000/svg" xmlns:xlink="http://www.w3.org/1999/xlink">
    <!-- Generator: Sketch 48.2 (47327) - http://www.bohemiancoding.com/sketch -->
    <title>australia</title>
    <desc>Created with Sketch.</desc>
    <defs></defs>
    <g id="Hydroshield-Wire-Copy" stroke="none" stroke-width="1" fill="none" fill-rule="evenodd" transform="translate(-131.000000, -738.000000)">
        <g id="australia" transform="translate(133.427734, 740.763606)" stroke="#4444D8" stroke-width="5">
            <path d="M26.6001494,0.239002353 C29.7672667,0.239002353 37.4588372,10.3487441 37.0063918,19.4475118 C36.5539465,28.5462794 32.9343839,30.5682277 29.3148214,30.5682277 C25.6952588,30.5682277 21.6232509,23.4914085 17.551243,23.9968956 C13.4792351,24.5023827 11.6694539,30.0627406 8.50233661,29.5572536 C5.33521936,29.0517665 -0.546569815,22.4804343 0.358320827,18.4365376 C1.26321147,14.3926409 8.04989128,5.29387325 13.4792351,5.29387325 C18.908579,5.29387325 18.0036883,11.8652054 20.265915,11.8652054 C22.5281416,11.8652054 24.3379228,11.8652054 24.7903682,10.3487441 C25.2428135,8.83228288 23.4330322,0.239002353 26.6001494,0.239002353 Z" id="Path-2" fill="#6BBBFF"></path>
            <path d="M29.1105737,37.3602019 C30.724067,35.5575531 35.5645469,36.2786126 35.2418482,37.3602019 C34.9191496,38.4417913 34.2737523,42.4076187 32.6602589,42.047089 C31.0467656,41.6865592 27.4970803,39.1628508 29.1105737,37.3602019 Z" id="Path-3"></path>
        </g>
    </g>
</svg>