<?xml version="1.0" encoding="UTF-8"?>
<svg width="41px" height="40px" viewBox="0 0 41 40" version="1.1" xmlns="http://www.w3.org/2000/svg" xmlns:xlink="http://www.w3.org/1999/xlink">
    <!-- Generator: Sketch 48.2 (47327) - http://www.bohemiancoding.com/sketch -->
    <title>logo-small</title>
    <desc>Created with Sketch.</desc>
    <defs></defs>
    <g id="Hydroshield-Wire-Copy" stroke="none" stroke-width="1" fill="none" fill-rule="evenodd" transform="translate(-132.000000, -4311.000000)">
        <g id="Group-7" transform="translate(130.000000, 4311.000000)" fill="#0C082D">
            <path d="M39.3353879,12.3117843 C34.0731916,12.5260161 29.6198029,15.9360711 27.8589446,20.6551222 C27.543573,20.0889948 27.2026787,19.5359593 26.8360641,18.9966108 C28.2582044,15.9624533 30.6689975,13.5400467 33.7032135,12.1001311 L39.3624933,12.1001311 C39.3539858,12.1709467 39.3440933,12.2411671 39.3353879,12.3117843 Z M21.4276571,13.4731985 C20.7229181,12.9725308 19.9900845,12.5137176 19.2329154,12.1001311 L22.3646711,12.1001311 C22.0352521,12.5458524 21.7222546,13.0036737 21.4276571,13.4731985 Z M24.9574855,16.6071324 C24.5241956,16.1292764 24.0713187,15.6726453 23.6002397,15.2376356 C24.2776755,14.113712 25.0684789,13.0621907 25.963351,12.1001311 L28.6556836,12.1001311 C27.1791346,13.373422 25.9303102,14.8950631 24.9574855,16.6071324 Z M14.2781768,30.9753439 C14.1679748,30.8620787 14.058762,30.7476234 13.9503406,30.6321762 C13.8820826,30.5595755 13.8136268,30.4867763 13.7459623,30.4133821 C13.6349689,30.2925791 13.5253604,30.1701893 13.4163455,30.0474027 C13.3544187,29.9777773 13.2920961,29.9089455 13.2309607,29.838725 C13.1067114,29.6961022 12.9844406,29.5512973 12.8629611,29.4058974 C12.8194343,29.353728 12.7749182,29.3027487 12.7317871,29.2503809 C12.5683636,29.0520181 12.4073143,28.851275 12.2486392,28.6479531 C12.2128285,28.6019329 12.178007,28.5545242 12.1421963,28.5083057 C12.0203212,28.3500122 11.8990396,28.1907268 11.7801322,28.0294579 C11.7243387,27.9538816 11.6697323,27.8771152 11.6147302,27.8009439 C11.5171906,27.6660572 11.4200466,27.5307738 11.3244854,27.3937051 C11.2655263,27.3094009 11.2075565,27.2241049 11.1495867,27.1390072 C11.0593674,27.0066992 10.9695439,26.8737962 10.8813031,26.7399013 C10.823729,26.6524233 10.7665505,26.5647469 10.7097678,26.4764755 C10.6217249,26.3398035 10.5344734,26.2019413 10.4482111,26.0630874 C10.4163574,26.0117114 10.3843058,25.9599387 10.3524521,25.908166 C12.6172324,26.5663338 14.2940047,28.6251414 14.384224,31.0832533 C14.348809,31.0473496 14.3133939,31.0116443 14.2781768,30.9753439 Z M17.9793426,34.164026 C17.9403663,34.1360568 17.9007965,34.1088811 17.8618202,34.0807136 C17.6054075,33.895046 17.352754,33.7040227 17.1032661,33.5096271 C17.0500447,33.4681693 16.9974168,33.4261164 16.9445911,33.3842618 C16.9303459,33.3729551 16.9164965,33.3610534 16.9022513,33.3495483 C17.0708189,32.6794788 17.1580704,31.9909615 17.1580704,31.2917326 C17.1580704,26.6704743 13.4082337,22.910904 8.79893979,22.910904 C8.77598928,22.910904 8.75264307,22.9128877 8.72969256,22.913086 C8.71920655,22.8910678 8.70812699,22.8696446 8.69764098,22.8476263 C8.66954639,22.7881175 8.64125394,22.728807 8.6133572,22.6692981 C8.47862186,22.3798868 8.34724997,22.0880951 8.22023075,21.793328 C8.20044583,21.7471095 8.18125445,21.7002958 8.16146953,21.6538789 C8.10547819,21.5223644 8.05304814,21.3888662 7.9986396,21.2561615 C8.26395543,21.2353334 8.53105191,21.2248202 8.79893979,21.2248202 C14.3353552,21.2248202 18.839789,25.7407478 18.839789,31.2917326 C18.839789,32.3714213 18.6747827,33.4177851 18.3479357,34.4189222 C18.2250714,34.3340229 18.100822,34.2511073 17.9793426,34.164026 Z M21.6749686,36.3854911 C21.538057,36.3174526 21.4019367,36.2474305 21.2660143,36.1768134 C21.179752,36.1321818 21.0932919,36.0879468 21.0076231,36.0423234 C20.9231415,35.997295 20.839847,35.9502831 20.7559589,35.9044613 C21.3158723,34.4403454 21.6096784,32.8687169 21.6096784,31.2917326 C21.6096784,29.9454442 21.4009474,28.6475564 21.0161307,27.4272284 L21.0161307,27.3740672 L20.9979285,27.3740672 C19.3417325,22.2021537 14.5003615,18.4477409 8.79893979,18.4477409 C8.20282002,18.4477409 7.60986583,18.4899922 7.02541916,18.5711226 C6.936387,18.2884556 6.84913548,18.0047968 6.7668302,17.7181625 C6.76425816,17.7088395 6.76168612,17.6995164 6.75891623,17.6903917 C6.69659372,17.4721926 6.63921744,17.2518116 6.58104976,17.0318272 C7.31328981,16.9181653 8.05522448,16.8608385 8.79893979,16.8608385 C16.7354644,16.8608385 23.1924724,23.3344086 23.1924724,31.2917326 C23.1924724,33.1462264 22.8507867,34.9368475 22.1757251,36.6267002 C22.1025209,36.5921851 22.0293166,36.5580667 21.9565081,36.5229565 C21.8625297,36.4775314 21.7685513,36.4321063 21.6749686,36.3854911 Z M27.6357707,33.7113621 C27.4191258,33.8758048 27.2012938,34.0376689 26.9842531,34.1925902 C26.5094149,34.5307988 26.0229037,34.8535351 25.5274891,35.1604024 C25.8159533,33.9033773 25.9623618,32.6108452 25.9623618,31.2917326 C25.9623618,21.8032461 18.2628606,14.0837592 8.79893979,14.0837592 C7.85163761,14.0837592 6.90670961,14.163501 5.97503752,14.3184224 C5.93230208,14.0843543 5.89134729,13.8500878 5.85316239,13.6154246 C5.83990649,13.5333024 5.82566134,13.4513786 5.81299899,13.3694547 C5.76551517,13.0643727 5.72258188,12.758894 5.68320988,12.4534153 C6.70727758,12.2846085 7.75113019,12.1993125 8.79893979,12.1993125 C14.8244385,12.1993125 20.5589011,15.1071129 24.1387853,19.9773165 C25.4946462,21.8228841 26.4967526,23.868798 27.1174057,26.0581283 C27.4040892,27.0681917 27.6072804,28.1090014 27.7214394,29.151993 L27.7521061,29.4316845 C27.8116587,30.05137 27.8419296,30.6758161 27.8419296,31.2917326 C27.8419296,32.0824067 27.7930608,32.8778416 27.6965104,33.6641517 C27.6761319,33.6798224 27.6561492,33.6956914 27.6357707,33.7113621 Z M31.5021406,25.1424856 C31.5021406,26.5072217 31.8281962,27.8295082 32.4504321,29.0210735 C32.0747164,29.4862343 31.6847555,29.9357244 31.2843086,30.3727177 C30.9699262,29.8559826 30.7026318,29.3104849 30.4844041,28.7403902 L30.4830192,28.3882962 L30.4104085,28.3218446 C30.2810151,27.3599834 30.0837594,26.4038747 29.8267532,25.4695859 C29.8229941,25.367429 29.8204221,25.2609082 29.8204221,25.1424856 C29.8204221,19.9277258 33.7958069,15.6270218 38.8674745,15.1251639 C38.7457972,15.7143015 38.6110619,16.3006619 38.459905,16.8814682 C34.4849159,17.548364 31.5021406,20.9953144 31.5021406,25.1424856 Z M35.5354953,24.3660936 C35.4527944,24.519428 35.3696977,24.6725641 35.2846225,24.8243117 C35.2357537,24.9115913 35.1856979,24.9978791 35.1360377,25.0845637 C35.0567002,25.2230209 34.9767691,25.3608831 34.895453,25.4977534 C34.8428251,25.5864216 34.7894058,25.674693 34.7359865,25.7629645 C34.6536813,25.8984463 34.5703867,26.0331346 34.486103,26.1672279 C34.4554363,26.2158267 34.4245718,26.2644256 34.3937074,26.3130245 C34.3131827,25.9313745 34.2720301,25.5396079 34.2720301,25.1424856 C34.2720301,22.9067384 35.5677448,20.974288 37.462547,20.0759028 C37.4407836,20.1348166 37.4190202,20.193532 37.3972567,20.2524457 C37.3408697,20.4033998 37.2836913,20.5541555 37.2251279,20.7041178 C37.1879322,20.8001254 37.150143,20.8959347 37.1119581,20.9915455 C37.0514163,21.1432931 36.9894894,21.2942472 36.9265734,21.4448045 C36.888982,21.5350596 36.8517864,21.6253147 36.8134036,21.7149747 C36.7435628,21.8784256 36.6721393,22.0406864 36.5997264,22.2025505 C36.5664878,22.2773332 36.5340405,22.3525127 36.5002083,22.4268988 C36.3959417,22.6562062 36.289301,22.8841251 36.180286,23.1102587 C36.1191506,23.2211435 36.0625657,23.3355988 36.0109271,23.4536247 C35.895581,23.6851141 35.7772671,23.9144215 35.6565791,24.1425387 C35.6170092,24.2175198 35.5758566,24.2915092 35.5354953,24.3660936 Z M39.5828974,9.31353045 C39.5828974,9.31650589 39.5826995,9.31987806 39.5826995,9.32305186 L5.41828975,9.32305186 C5.39791127,8.83012029 5.38604032,8.33937071 5.38604032,7.85496874 L5.38604032,7.3394238 L39.6139597,7.3394238 L39.6139597,7.85496874 C39.6139597,8.35028066 39.6036715,8.83726135 39.5828974,9.31353045 Z M5.38604032,4.56234453 L39.6139597,4.56234453 L39.6139597,2.77707928 L5.38604032,2.77707928 L5.38604032,4.56234453 Z M2.61615089,0 L2.61615089,7.85496874 C2.61615089,8.64524615 2.64345409,9.44940897 2.69350994,10.2573407 L2.67055943,10.2626965 L2.7845206,11.4711227 C2.89373338,12.6289664 3.05834395,13.7913724 3.27221899,14.9424718 L3.24689428,14.9490178 L3.53971117,16.2645599 C3.75813673,17.2462574 4.01909989,18.2164499 4.31132322,19.1668061 L4.27887594,19.174939 L4.78833775,20.6217973 C5.09896106,21.5037183 5.44796713,22.3711588 5.82407855,23.2207467 L5.76492162,23.2282845 L6.6611787,24.9883577 C6.85368602,25.3662388 7.0537116,25.7371773 7.25789202,26.1043468 C8.62878944,28.5699965 10.2616393,30.7972141 12.1394264,32.7560468 C12.8586084,33.5064533 13.6134033,34.217584 14.402624,34.8880502 C14.4030197,34.8886453 14.4036132,34.8890421 14.4042067,34.8894388 C14.4044046,34.8896371 14.4046024,34.8898355 14.4049981,34.8900339 L15.8882739,36.1502328 L15.9132029,36.0857649 C16.3548025,36.4150471 16.8025353,36.7365932 17.2615455,37.0402867 C17.5933387,37.2598743 17.9294846,37.4727176 18.2691917,37.6780231 L19.5423516,38.4476708 L19.5605538,38.4119655 C20.3442346,38.834875 21.1441391,39.2266415 21.9551232,39.5743715 L22.4996043,39.8080429 L23.0440854,39.5747682 C23.2468809,39.4878853 23.4496764,39.3990188 23.6382267,39.3111441 C23.641788,39.3095572 23.6453493,39.3077719 23.6489106,39.306185 C23.6493063,39.3059866 23.649702,39.3057883 23.6500977,39.3055899 L24.1041617,39.0947303 L24.1061402,39.0905646 C24.1868627,39.0520823 24.2689701,39.0149884 24.3487033,38.9761093 C25.8185254,38.2614081 27.2450184,37.4136055 28.5894041,36.4557115 C29.0129993,36.1534066 29.4375838,35.833249 29.8520779,35.5037684 L30.2786409,35.1643696 L30.2802237,35.1540548 C30.9064166,34.6359311 31.5159901,34.0908301 32.0941056,33.5264879 C32.7703543,32.869312 33.4200912,32.1677027 34.043712,31.4375292 L34.0813034,31.4914839 L35.2337752,29.9656772 C36.461232,28.3402924 37.5569211,26.5657387 38.4854276,24.7019218 C38.5511135,24.5727876 38.6144253,24.4456371 38.6696252,24.3280079 C38.671208,24.3248341 38.6727908,24.3214619 38.6743736,24.3182881 C38.6745715,24.3174947 38.6749672,24.3168996 38.6753629,24.3163045 L38.6753629,24.3161062 C39.143672,23.3473022 39.5708285,22.34557 39.9562389,21.3206294 C40.2979245,20.4119294 40.606965,19.4851784 40.8788099,18.544542 L41.4157728,16.6862792 L41.35899,16.6886596 C41.5736565,15.7740087 41.7590412,14.8514233 41.9056475,13.9274493 C42.0674882,12.9084596 42.1903525,11.8624925 42.271075,10.8151369 C42.3102492,10.2936411 42.3361674,9.83462954 42.3508083,9.42302671 C42.3727696,8.91799501 42.3838491,8.39015159 42.3838491,7.85496874 L42.3838491,0 L2.61615089,0 Z" id="logo-small"></path>
        </g>
    </g>
</svg>