<?xml version="1.0" encoding="UTF-8"?>
<svg width="224px" height="50px" viewBox="0 0 224 50" version="1.1" xmlns="http://www.w3.org/2000/svg" xmlns:xlink="http://www.w3.org/1999/xlink">
    <!-- Generator: Sketch 48.2 (47327) - http://www.bohemiancoding.com/sketch -->
    <title>logo</title>
    <desc>Created with Sketch.</desc>
    <defs>
        <polygon id="path-1" points="0 48.532591 223.110718 48.532591 223.110718 0.0762999937 0 0.0762999937"></polygon>
    </defs>
    <g id="Hydroshield-Wire-Copy" stroke="none" stroke-width="1" fill="none" fill-rule="evenodd" transform="translate(-130.000000, -73.000000)">
        <g id="logo" transform="translate(130.000000, 73.710938)">
            <polygon id="Fill-1" fill="#0C082D" points="58.2391091 32.3521959 58.2391091 10.7914658 64.6026237 10.7914658 64.6026237 19.0048158 71.8679517 19.0048158 71.8679517 10.7850202 78.1913965 10.7850202 78.1913965 32.3550606 71.8772362 32.3550606 71.8772362 23.8688474 64.6153287 23.8688474 64.6153287 32.3521959"></polygon>
            <g id="Group-21">
                <path d="M211.524096,24.3755542 C211.55155,24.7814412 211.561184,25.1897427 211.610795,25.5929737 C211.703033,26.3439008 211.939769,27.037603 212.417818,27.6460713 C213.515764,29.0436168 216.670163,29.0880446 217.498861,26.5918758 C217.915498,25.3372721 217.894786,24.0546596 217.672018,22.7698739 C217.549676,22.0638575 217.278019,21.4165149 216.758548,20.9055946 C216.0257,20.1838836 215.112712,20.051083 214.144332,20.1650501 C213.094311,20.2884339 212.374709,20.8664788 211.957832,21.8332674 C211.607423,22.6455243 211.539991,23.5041406 211.524096,24.3755542 Z M223.110694,9.42147977 L223.110694,32.3923655 L217.66672,32.3923655 L217.66672,29.9353126 C217.652029,29.9307249 217.637338,29.9261373 217.622648,29.9213081 C217.572796,30.0031616 217.524148,30.0859809 217.472851,30.1668686 C216.419217,31.8268763 214.927754,32.72485 212.950535,32.7716924 C211.358886,32.8093595 209.904751,32.4073358 208.649301,31.3912903 C207.801337,30.7053147 207.207449,29.832211 206.772268,28.8374136 C206.132381,27.3753995 205.974397,25.833705 205.994867,24.2611042 C206.01004,23.1033242 206.119136,21.957617 206.478455,20.8495769 C206.811042,19.8243561 207.279698,18.868916 208.00219,18.0600395 C209.032945,16.9061228 210.331262,16.2578143 211.860295,16.0706862 C212.818078,15.9533387 213.768877,15.9869011 214.702096,16.2546754 C215.833999,16.5796747 216.67498,17.3011443 217.358216,18.2331632 C217.445396,18.3519594 217.525593,18.4760676 217.65805,18.5823081 L217.65805,9.42147977 L223.110694,9.42147977 Z" id="Fill-2" fill="#0C082D"></path>
                <path d="M100.535628,24.5844616 C100.55369,24.8138445 100.568862,25.2472575 100.625217,25.6751169 C100.719622,26.391033 100.959008,27.0482753 101.408398,27.6316323 C102.494302,29.0419749 105.670135,29.1030632 106.504854,26.5856463 C106.917396,25.3404593 106.900057,24.0655734 106.677529,22.7885143 C106.55302,22.0730811 106.282808,21.4172875 105.756352,20.9005724 C105.030007,20.1873123 104.123762,20.0530629 103.165016,20.161718 C102.11668,20.2807556 101.390335,20.8491423 100.967196,21.8164137 C100.60884,22.6361558 100.5508,23.5044304 100.535628,24.5844616 Z M112.101996,32.4037622 L106.674398,32.4037622 L106.674398,29.9271514 C106.659467,29.923771 106.644776,29.9203906 106.629845,29.9170102 C106.505817,30.1125893 106.392145,30.315895 106.256076,30.5025403 C104.960889,32.2784468 103.188617,32.9484863 101.046429,32.7437318 C99.4899414,32.5949951 98.1417719,31.9923218 97.0628511,30.8420269 C96.116387,29.8329837 95.5492311,28.61653 95.2746843,27.2754851 C94.8325194,25.1166299 94.8558799,22.9597064 95.4911909,20.8353793 C95.8049931,19.786013 96.3056798,18.8245365 97.0488829,18.0103479 C98.0786743,16.882267 99.3671178,16.250136 100.877366,16.0690443 C101.83539,15.9541114 102.785707,15.9886395 103.718444,16.2588284 C104.840474,16.5843107 105.674229,17.301917 106.355298,18.2233118 C106.440793,18.3389691 106.516895,18.4613871 106.598777,18.5797004 C106.606243,18.5908074 106.624306,18.5944292 106.665006,18.6161602 L106.665006,9.41935496 L112.101996,9.41935496 L112.101996,32.4037622 Z" id="Fill-4" fill="#0C082D"></path>
                <path d="M162.178807,9.42145562 L162.178807,18.8894156 C162.475752,18.5067084 162.730069,18.1288302 163.033515,17.7963458 C164.23261,16.4821025 165.756586,15.9719067 167.501403,16.0078836 C168.566356,16.0296146 169.560745,16.267207 170.448206,16.8773655 C171.589502,17.6620964 172.211808,18.7807605 172.439152,20.1193908 C172.550898,20.7763917 172.611346,21.4500531 172.614958,22.1164707 C172.632057,25.4678755 172.622906,28.8192803 172.622906,32.1709265 C172.622906,32.2382927 172.622906,32.3056588 172.622906,32.3928243 L167.168816,32.3928243 C167.168816,32.2892398 167.168816,32.1900015 167.168816,32.0905218 C167.168816,29.1208584 167.177486,26.1511951 167.160147,23.1815317 C167.157257,22.7048982 167.084767,22.2164334 166.961943,21.7557359 C166.766148,21.0226765 166.23921,20.6107531 165.496248,20.4885765 C164.88502,20.388131 164.277646,20.4110693 163.700375,20.6530079 C162.680457,21.0799015 162.284291,21.9278938 162.195184,22.9673605 C162.175677,23.1950532 162.177603,23.4251605 162.177603,23.6540605 C162.176399,26.4626729 162.17664,29.2710439 162.17664,32.0794148 C162.17664,32.1796189 162.17664,32.279823 162.17664,32.3962047 L156.727126,32.3962047 L156.727126,9.42145562 L162.178807,9.42145562 Z" id="Fill-6" fill="#0C082D"></path>
                <path d="M192.737844,22.5981265 C192.71063,22.3441151 192.700034,22.1166639 192.660056,21.8945247 C192.471967,20.8444339 191.981154,20.015758 190.887543,19.7383255 C190.446341,19.62629 189.963717,19.6110783 189.50638,19.6439163 C188.089573,19.7455691 187.022453,20.9658861 186.93166,22.5981265 L192.737844,22.5981265 Z M198.042378,25.6998661 L186.824972,25.6998661 C186.947073,26.9510894 187.33168,28.0489884 188.507174,28.6410377 C189.575739,29.1792424 190.70114,29.1724817 191.793547,28.6873972 C192.326264,28.4507706 192.647773,27.9840368 192.833694,27.4311033 C192.865966,27.3352454 192.894143,27.2381802 192.925933,27.1370103 L198.027205,27.1370103 C197.913052,28.0255672 197.659939,28.8498969 197.203565,29.6054117 C196.238798,31.2023995 194.757449,32.0416995 192.998182,32.4586934 C191.432301,32.8300522 189.844024,32.8788263 188.257914,32.6591016 C186.318987,32.3903615 184.598735,31.6314663 183.262366,30.1489284 C182.311085,29.0932842 181.713103,27.8485802 181.475644,26.4454812 C181.194595,24.7849906 181.198689,23.1244999 181.755971,21.5200269 C182.612605,19.054523 184.287341,17.384857 186.757781,16.5204457 C188.034423,16.0737527 189.350321,15.9346742 190.682837,16.0324637 C192.474375,16.1640571 194.134661,16.7020203 195.518714,17.902538 C196.563196,18.8084797 197.229574,19.9679498 197.636578,21.2807443 C197.940265,22.2612958 198.033467,23.2727537 198.041655,24.2943526 C198.045508,24.7502209 198.042378,25.2063307 198.042378,25.6998661 Z" id="Fill-8" fill="#0C082D"></path>
                <path d="M78.217379,16.4322661 L78.9345724,16.4322661 C80.5678852,16.4322661 82.2014388,16.4361293 83.8347516,16.4274369 C84.0437925,16.4262297 84.1398839,16.4858692 84.2169496,16.6874847 C85.2334954,19.344463 86.2606377,21.997095 87.2853717,24.6506929 C87.3157163,24.7296489 87.3479876,24.8076391 87.3975987,24.9317473 C87.4457648,24.8129511 87.4816486,24.7325464 87.5112707,24.6499685 C88.4613472,21.9968536 89.413832,19.3447044 90.3545162,16.6884505 C90.4279695,16.4807986 90.5247834,16.4267126 90.7318976,16.4276784 C92.2806789,16.4361293 93.829701,16.4322661 95.3784822,16.4322661 C95.4606055,16.4322661 95.5427287,16.4322661 95.6621806,16.4322661 C95.6181086,16.5486477 95.5872823,16.6333986 95.5538069,16.7169423 C92.7772715,23.6568614 90.0002544,30.5965389 87.2249232,37.5369409 C87.1731446,37.6663612 87.13702,37.7655994 86.9535072,37.7643922 C85.3201944,37.7554583 83.6866408,37.7590801 82.0530872,37.7585972 C82.0196117,37.7585972 81.9861363,37.7532852 81.9271328,37.7482146 C81.9700006,37.6296599 82.0080518,37.5197976 82.0492339,37.411384 C82.8548121,35.2981639 83.6584636,33.1842194 84.4703034,31.0736554 C84.5454425,30.8783177 84.5430342,30.7177497 84.4572985,30.5253095 C82.4140922,25.9289593 80.3771474,21.3301945 78.3392393,16.7316711 C78.3019105,16.6474031 78.2696392,16.5609619 78.217379,16.4322661" id="Fill-10" fill="#0C082D"></path>
                <path d="M155.309309,21.1578917 L150.390104,21.1578917 C150.336399,20.9929775 150.289918,20.823717 150.227062,20.6612174 C150.018743,20.1227712 149.630765,19.7917355 149.067463,19.6656956 C148.493563,19.5372412 147.91846,19.5319292 147.369366,19.7465833 C147.143467,19.834956 146.915642,19.9952826 146.763918,20.183618 C146.309712,20.7478999 146.536093,21.5014831 147.265087,21.7216907 C147.956511,21.9307913 148.677076,22.0541752 149.392102,22.1715226 C150.694032,22.3849694 152.000538,22.569683 153.225402,23.0965393 C154.738059,23.7472624 155.579039,24.8975572 155.732689,26.5389729 C155.821796,27.4924814 155.763997,28.4353658 155.440802,29.3492755 C155.040301,30.4819441 154.259288,31.2635361 153.211675,31.8056041 C152.197056,32.3305287 151.110187,32.5862303 149.981896,32.6992316 C148.523908,32.8448293 147.073867,32.8078866 145.644779,32.4659854 C144.422805,32.1735826 143.309686,31.6595234 142.455942,30.6973225 C141.619055,29.7544381 141.290081,28.6215281 141.248899,27.3454348 L141.515498,27.3454348 C143.013223,27.3454348 144.511189,27.3495396 146.009155,27.3406057 C146.208081,27.3393985 146.283221,27.3985551 146.328738,27.5922025 C146.57005,28.6210452 147.080611,29.0414195 148.13304,29.1210999 C148.644082,29.1599743 149.150067,29.156111 149.636545,28.979124 C150.080637,28.8175901 150.384565,28.5145632 150.450793,28.028513 C150.529304,27.4521583 150.258129,27.0479615 149.599457,26.862282 C148.934524,26.6749124 148.256345,26.5208637 147.574795,26.4097941 C146.489372,26.2330485 145.400095,26.0794827 144.365728,25.6876002 C143.404091,25.323485 142.560221,24.7927654 142.031839,23.8679902 C141.557884,23.0385899 141.440118,22.1270948 141.459626,21.191454 C141.505143,18.990827 142.654145,17.5466806 144.599093,16.6844424 C145.736535,16.1800415 146.952007,16.0238196 148.188672,16.0095738 C149.457608,15.9953279 150.703184,16.1295772 151.905169,16.5661291 C153.827238,17.2644189 154.904473,18.653272 155.237541,20.652525 C155.263792,20.8109199 155.282817,20.9707635 155.309309,21.1578917" id="Fill-12" fill="#0C082D"></path>
                <mask id="mask-2" fill="white">
                    <use xlink:href="#path-1"></use>
                </mask>
                <g id="Clip-15"></g>
                <polygon id="Fill-14" fill="#0C082D" mask="url(#mask-2)" points="199.274756 32.4004543 204.667192 32.4004543 204.667192 9.42160049 199.274756 9.42160049"></polygon>
                <path d="M119.521022,32.4126961 L119.201922,32.4126961 C117.619424,32.4126961 116.036927,32.4126961 114.454429,32.4126961 C114.064043,32.4126961 114.063802,32.4129376 114.063802,32.0314376 C114.063802,28.2644876 114.063802,24.4975376 114.063802,20.7303461 C114.063802,19.4153785 114.063561,18.1004109 114.064043,16.7852018 C114.064043,16.4375056 114.065969,16.4350911 114.421917,16.4350911 C116.021273,16.4346082 117.620628,16.43823 119.219984,16.4307449 C119.440585,16.4297791 119.5321,16.4744484 119.527043,16.7229063 C119.509944,17.5539967 119.517651,18.3858115 119.518132,19.2171434 C119.518132,19.2970652 119.533064,19.3769871 119.545346,19.4991636 C119.786417,19.0824111 119.983658,18.7004282 120.218467,18.3428324 C120.922415,17.2712521 121.903318,16.6007297 123.168883,16.3754515 C123.583834,16.3015661 124.00625,16.2689696 124.425055,16.215125 C124.6064,16.1919452 124.686115,16.2564139 124.685393,16.4510272 C124.680817,17.9951362 124.681058,19.5394867 124.685633,21.0835958 C124.686115,21.2586511 124.628316,21.3132201 124.450342,21.3192565 C123.562881,21.3484726 122.682405,21.4158388 121.819991,21.6693672 C120.337919,22.1047118 119.68286,23.0927485 119.553775,24.3195847 C119.529933,24.5467945 119.522708,24.7766603 119.522467,25.0053189 C119.520059,27.3638579 119.521022,29.7226384 119.521022,32.0811775 L119.521022,32.4126961 Z" id="Fill-16" fill="#0C082D" mask="url(#mask-2)"></path>
                <polygon id="Fill-17" fill="#0C082D" mask="url(#mask-2)" points="174.615152 32.3903132 180.041306 32.3903132 180.041306 16.4520654 174.615152 16.4520654"></polygon>
                <path d="M177.393301,14.9026685 C175.924476,14.8983223 174.728993,14.0575736 174.433012,12.8809601 C173.917153,10.8310014 175.478217,9.04954144 177.600416,9.2687832 C178.774946,9.38999395 179.683118,9.92771574 180.137806,11.0497603 C180.827545,12.7520228 179.704793,14.6252359 177.88869,14.856309 C177.696266,14.880696 177.501916,14.8927688 177.393301,14.9026685" id="Fill-18" fill="#0C082D" mask="url(#mask-2)"></path>
                <path d="M133.098013,15.2784943 C132.84779,15.0276218 132.472335,15.0276218 132.221871,15.2784943 C131.909033,15.5921452 125.150846,21.2861529 125.150846,25.8033057 C125.150846,30.508794 128.96801,33.3318937 132.659942,33.3318937 C136.351875,33.3318937 140.169039,30.508794 140.169039,25.8033057 C140.169039,21.2861529 133.410852,15.5921452 133.098013,15.2784943" id="Fill-19" fill="#0C082D" mask="url(#mask-2)"></path>
                <path d="M44.6962954,15.0629226 C38.2909253,15.3236948 32.8700705,19.4745593 30.7266786,25.2187898 C30.3427947,24.5296753 29.9278437,23.8564969 29.4815847,23.1999789 C31.2126746,19.5066729 34.1471949,16.5580162 37.8405722,14.8052894 L44.7292892,14.8052894 C44.7189335,14.8914891 44.7068919,14.9769644 44.6962954,15.0629226 Z M22.8982408,16.4766456 C22.0404024,15.8672115 21.148366,15.3087245 20.2267075,14.8052894 L24.0388143,14.8052894 C23.6378314,15.3478403 23.2568375,15.90512 22.8982408,16.4766456 Z M27.1948986,20.2914038 C26.6674797,19.7097371 26.1162186,19.1539062 25.542801,18.6243939 C26.3674048,17.256306 27.3300045,15.9763494 28.4192811,14.8052894 L31.6965032,14.8052894 C29.8991848,16.3551934 28.3790624,18.2073999 27.1948986,20.2914038 Z M14.1955881,37.7810043 C14.0614455,37.6431331 13.928507,37.5038132 13.7965319,37.363286 C13.7134453,37.2749132 13.630118,37.186299 13.5477539,37.0969604 C13.412648,36.9499139 13.2792279,36.8009357 13.1465302,36.6514747 C13.0711503,36.5667237 12.9952886,36.4829386 12.920872,36.3974633 C12.7696304,36.2238566 12.6207971,36.047594 12.4729272,35.870607 C12.4199445,35.8071042 12.3657576,35.74505 12.3132565,35.6813057 C12.1143305,35.4398501 11.9182944,35.1954969 11.7251483,34.9480049 C11.681558,34.8919871 11.6391718,34.8342792 11.5955815,34.7780201 C11.4472299,34.5853384 11.2996008,34.3914495 11.1548616,34.1951461 C11.0869474,34.1031514 11.0204781,34.0097081 10.9535273,33.9169891 C10.8347978,33.7527993 10.71655,33.5881265 10.6002288,33.4212806 C10.5284613,33.318662 10.457898,33.214836 10.3873346,33.1112515 C10.2775159,32.9502006 10.1681788,32.7884253 10.0607684,32.6254427 C9.99068672,32.5189608 9.92108669,32.4122373 9.85196832,32.3047896 C9.74479873,32.1384266 9.63859246,31.9706149 9.53359034,31.8015959 C9.49481662,31.7390589 9.45580207,31.676039 9.41702835,31.6130191 C12.1738156,32.414169 14.2148545,34.9202375 14.3246733,37.9123562 C14.2815646,37.8686527 14.2384559,37.8251907 14.1955881,37.7810043 Z M18.7008052,41.6624043 C18.6533615,41.6283591 18.6051954,41.5952796 18.5577518,41.5609929 C18.2456354,41.3349904 17.9380948,41.1024686 17.6344075,40.865842 C17.5696241,40.8153778 17.5055632,40.7641892 17.4412614,40.713242 C17.4239216,40.6994791 17.4070635,40.6849917 17.3897237,40.6709873 C17.5949113,39.85535 17.7011176,39.0172574 17.7011176,38.1661261 C17.7011176,32.5409332 13.1366562,27.9646238 7.52602689,27.9646238 C7.49809054,27.9646238 7.46967254,27.9670383 7.4417362,27.9672798 C7.42897218,27.9404782 7.41548567,27.914401 7.40272165,27.8875994 C7.36852371,27.8151627 7.33408494,27.7429675 7.30012783,27.6705308 C7.13612223,27.3182469 6.97621075,26.9630656 6.82159753,26.6042625 C6.79751448,26.5480033 6.77415392,26.4910198 6.75007086,26.4345192 C6.68191582,26.274434 6.61809572,26.1119344 6.55186732,25.9504005 C6.87482108,25.9250477 7.19994233,25.9122505 7.52602689,25.9122505 C14.2651881,25.9122505 19.7481772,31.4092305 19.7481772,38.1661261 C19.7481772,39.4803694 19.5473245,40.754048 19.1494725,41.9726748 C18.9999167,41.8693318 18.8486751,41.7684033 18.7008052,41.6624043 Z M23.199279,44.3664664 C23.0326242,44.2836471 22.8669328,44.1984133 22.7014822,44.1124551 C22.5964801,44.0581275 22.4912372,44.0042829 22.3869575,43.9487481 C22.2841229,43.8939377 22.1827332,43.8367127 22.0806211,43.7809364 C22.7621715,41.9987521 23.1198049,40.0856987 23.1198049,38.1661261 C23.1198049,36.5273664 22.8657287,34.9475219 22.3973133,33.4620866 L22.3973133,33.3973765 L22.3751568,33.3973765 C20.3591643,27.1019027 14.4660408,22.5318711 7.52602689,22.5318711 C6.80040445,22.5318711 6.07863529,22.5833011 5.36722185,22.6820565 C5.2588481,22.3379822 5.15264183,21.9927005 5.05245632,21.6437971 C5.04932553,21.6324487 5.04619473,21.6211003 5.0428231,21.6099933 C4.96696148,21.344392 4.89712062,21.0761348 4.82631644,20.8083604 C5.7176303,20.6700063 6.62074486,20.6002257 7.52602689,20.6002257 C17.1867035,20.6002257 25.0464493,28.4801317 25.0464493,38.1661261 C25.0464493,40.4234952 24.6305349,42.6031156 23.8088211,44.6600765 C23.7197138,44.6180632 23.6306065,44.5765329 23.5419809,44.5337952 C23.4275863,44.4785019 23.3131918,44.4232085 23.199279,44.3664664 Z M30.4550217,41.1114025 C30.1913123,41.3115692 29.9261579,41.508597 29.6619667,41.6971739 C29.0839734,42.1088559 28.4917711,42.5017042 27.8887314,42.8752362 C28.2398624,41.3451315 28.418077,39.7718064 28.418077,38.1661261 C28.418077,26.6163353 19.0459153,17.2198462 7.52602689,17.2198462 C6.37293022,17.2198462 5.22272352,17.3169114 4.08865247,17.5054882 C4.03663307,17.2205705 3.98678115,16.9354114 3.94030085,16.6497693 C3.92416521,16.5498067 3.90682541,16.4500855 3.89141225,16.3503643 C3.83361292,15.9790055 3.78135269,15.6071637 3.73342741,15.235322 C4.97996633,15.0298432 6.2505883,14.9260173 7.52602689,14.9260173 C14.8605212,14.9260173 21.8407539,18.465516 26.1983418,24.3937358 C27.8487535,26.6402394 29.0685603,29.1306132 29.8240457,31.7955595 C30.1730092,33.0250518 30.4203421,34.2919698 30.5593014,35.5615437 L30.5966301,35.9019962 C30.6691201,36.6563038 30.7059672,37.4164062 30.7059672,38.1661261 C30.7059672,39.1285684 30.646482,40.0968057 30.5289567,41.053936 C30.5041512,41.073011 30.4798273,41.0923275 30.4550217,41.1114025 Z M35.1613323,30.6810001 C35.1613323,32.3422152 35.5582211,33.9517587 36.3156331,35.402183 C35.8582959,35.9683965 35.3836189,36.5155351 34.8961779,37.047462 C34.5134981,36.4184699 34.1881361,35.7544668 33.9225,35.0605232 L33.9208142,34.6319394 L33.8324294,34.5510517 C33.6749262,33.3802331 33.4348181,32.2164168 33.1219792,31.0791606 C33.1174035,30.9548109 33.1142727,30.8251492 33.1142727,30.6810001 C33.1142727,24.3333719 37.9532809,19.0983713 44.1267311,18.4874885 C43.9786204,19.2046118 43.8146148,19.9183548 43.6306202,20.625337 C38.7920937,21.437111 35.1613323,25.6328863 35.1613323,30.6810001 Z M40.0709039,29.7359426 C39.9702367,29.9225879 39.8690879,30.1089916 39.7655307,30.2937052 C39.7060456,30.3999457 39.6451155,30.504979 39.584667,30.6104951 C39.488094,30.7790311 39.3907984,30.9468428 39.2918171,31.1134473 C39.2277561,31.2213779 39.1627319,31.3288257 39.0977076,31.4362735 C38.9975221,31.6011877 38.8961325,31.7651361 38.7935387,31.9283602 C38.7562099,31.9875168 38.7186404,32.0466734 38.6810708,32.1058301 C38.5830528,31.6412694 38.53296,31.1643944 38.53296,30.6810001 C38.53296,27.9595532 40.1101593,25.607292 42.4165934,24.5137393 C42.3901021,24.5854516 42.3636107,24.6569225 42.3371193,24.7286348 C42.2684826,24.9123826 42.1988826,25.0958889 42.1275968,25.2784294 C42.0823206,25.3952939 42.036322,25.511917 41.9898417,25.6282987 C41.9161475,25.8130122 41.8407676,25.99676 41.7641835,26.1800249 C41.7184257,26.2898872 41.6731495,26.3997495 41.6264284,26.5088875 C41.5414152,26.707847 41.4544754,26.9053577 41.3663314,27.1023856 C41.3258719,27.1934144 41.2863757,27.2849261 41.2451936,27.3754719 C41.1182759,27.6545947 40.9884683,27.9320273 40.8557706,28.2072867 C40.781354,28.3422605 40.7124765,28.4815804 40.6496197,28.6252465 C40.5092155,28.9070253 40.3651988,29.186148 40.2182922,29.4638221 C40.1701261,29.5550923 40.1200333,29.6451553 40.0709039,29.7359426 Z M44.9975744,11.4133201 C44.9975744,11.4169419 44.9973336,11.4210467 44.9973336,11.4249099 L3.41095531,11.4249099 C3.38614976,10.8248926 3.37169993,10.2275312 3.37169993,9.63789649 L3.37169993,9.01035319 L45.0353848,9.01035319 L45.0353848,9.63789649 C45.0353848,10.2408113 45.0228616,10.833585 44.9975744,11.4133201 Z M3.37169993,5.62997372 L45.0353848,5.62997372 L45.0353848,3.45687263 L3.37169993,3.45687263 L3.37169993,5.62997372 Z M7.22491645e-05,0.0764931583 L7.22491645e-05,9.63789649 C7.22491645e-05,10.5998559 0.0333068648,11.5787172 0.0942369936,12.5621662 L0.06630065,12.5686855 L0.205019046,14.0396335 C0.337957509,15.4490103 0.538328525,16.8639405 0.798666348,18.2651078 L0.767840038,18.2730758 L1.12426925,19.8744099 C1.39014617,21.069374 1.70780167,22.2503337 2.06350839,23.4071479 L2.02401218,23.4170476 L2.64415084,25.1782253 C3.0222548,26.2517372 3.44707989,27.3076229 3.90489876,28.3417775 L3.83289043,28.3509529 L4.92385281,30.4933891 C5.15818094,30.9533621 5.40166062,31.4048843 5.65019775,31.8518187 C7.31891262,34.8531128 9.30648713,37.5641771 11.5922099,39.9485519 C12.4676289,40.8619787 13.3863975,41.7275973 14.3470705,42.5437175 C14.3475522,42.5444419 14.3482747,42.5449248 14.3489972,42.5454077 C14.349238,42.5456492 14.3494788,42.5458906 14.3499605,42.5461321 L16.1554671,44.0801 L16.1858117,44.0016269 C16.7233455,44.4024433 17.2683451,44.793843 17.8270719,45.1635116 C18.2309448,45.430803 18.6401159,45.689885 19.0536219,45.9397916 L20.6033665,46.8766396 L20.6255229,46.8331776 C21.5794527,47.3479611 22.5531306,47.8248361 23.540295,48.2481079 L24.2030607,48.5325427 L24.8658264,48.2485908 C25.1126777,48.1428332 25.359529,48.0346611 25.5890405,47.9276962 C25.5933755,47.9257646 25.5977104,47.9235914 25.6020454,47.9216598 C25.602527,47.9214183 25.6030087,47.9211769 25.6034903,47.9209354 L26.1561965,47.6642681 L26.1586048,47.6591975 C26.2568636,47.6123551 26.3568083,47.5672029 26.453863,47.5198776 C28.2429932,46.6499128 29.9793814,45.6179312 31.615825,44.4519417 C32.1314432,44.0839633 32.6482655,43.6942538 33.1528055,43.2931959 L33.6720362,42.8800653 L33.6739629,42.8675096 C34.4361915,42.2368274 35.1781905,41.5733072 35.8818973,40.8863658 C36.7050561,40.0864231 37.4959437,39.2323944 38.2550415,38.343596 L38.3007993,38.409272 L39.7036373,36.5519949 C41.19775,34.5735071 42.5314696,32.4134446 43.6616874,30.1447271 C43.7416431,29.9875394 43.8187089,29.8327664 43.8859006,29.6895831 C43.8878272,29.6857198 43.8897539,29.6816151 43.8916805,29.6777518 C43.8919214,29.676786 43.892403,29.6760616 43.8928847,29.6753372 L43.8928847,29.6750958 C44.4629306,28.4958263 44.9828837,27.2764751 45.4520217,26.0288736 C45.867936,24.9227652 46.2441133,23.7946843 46.5750145,22.6497014 L47.2286286,20.3877447 L47.1595102,20.3906421 C47.4208114,19.27729 47.6464696,18.1542797 47.824925,17.0295791 C48.0219244,15.7892213 48.1714802,14.5160255 48.2697391,13.2411395 C48.3174235,12.6063526 48.3489723,12.0476241 48.3667938,11.5466036 C48.393526,10.9318575 48.4070125,10.2893439 48.4070125,9.63789649 L48.4070125,0.0764931583 L7.22491645e-05,0.0764931583 Z" id="Fill-20" fill="#0C082D" mask="url(#mask-2)"></path>
            </g>
        </g>
    </g>
</svg>