<?xml version="1.0" encoding="UTF-8"?>
<svg width="112px" height="36px" viewBox="0 0 112 36" version="1.1" xmlns="http://www.w3.org/2000/svg" xmlns:xlink="http://www.w3.org/1999/xlink">
    <!-- Generator: Sketch 48.2 (47327) - http://www.bohemiancoding.com/sketch -->
    <title>palmolive</title>
    <desc>Created with Sketch.</desc>
    <defs></defs>
    <g id="Hydroshield-Wire-Copy" stroke="none" stroke-width="1" fill="none" fill-rule="evenodd" transform="translate(-784.000000, -1593.000000)">
        <g id="logos" transform="translate(130.000000, 1571.746094)">
            <g id="palmolive" transform="translate(654.668438, 21.476366)">
                <polygon id="polygon7" fill="#00B082" points="0 3.18106505 0 3.18106505 110.784795 3.18106505 110.784795 31.8094662 0 31.8094662"></polygon>
                <path d="M98.739146,20.9735933 L93.5358663,20.9735933 C93.5808702,18.3527083 94.2245444,16.770466 94.8249911,16.2244977 C95.4550457,15.6518823 96.2212963,15.1633531 97.0846606,15.1710511 C98.6586127,15.1852629 99.9068788,16.9848267 99.9489219,18.7553748 C99.9684631,19.5589313 100.110581,20.9735933 98.739146,20.9735933 Z M93.60278,22.1081653 L100.557067,22.1081653 C102.314587,22.1081653 102.914442,20.7165973 102.910889,19.7821743 C102.904375,18.2627005 102.303336,16.9765365 101.4228,15.9331566 C100.310137,14.6132397 98.7379617,13.9873302 97.0100489,14.0015419 C95.0470499,14.0175301 93.5796859,14.8352984 92.3758316,16.1960741 C91.1713852,17.5568499 90.4530992,19.1438295 90.4661267,21.2601971 C90.478562,23.4079489 90.9593931,25.2377127 92.3539218,26.6517826 C93.7602936,28.0800642 95.1595596,28.6236639 97.3588291,28.6236639 C98.7788205,28.6236639 100.099922,27.7899075 100.621612,27.4209939 C101.494451,26.801006 102.514736,25.1885637 102.624877,24.3269759 C102.468548,24.1327486 102.405779,23.8793055 102.157074,23.8828585 C101.872839,23.8875957 101.611105,24.126827 101.476686,24.3779014 C100.542263,26.1176573 99.3425536,27.0840569 97.6673426,27.0840569 C94.6899795,27.084649 93.60278,24.6769404 93.60278,22.1081653 Z M79.7451321,14.311832 L83.8387104,28.2630406 L86.295568,28.2630406 C87.4804733,23.306098 89.2356254,18.5386455 91.6806398,14.0015419 L90.0747112,14.0015419 C88.2496847,17.4585519 86.8918697,21.1743344 85.8224349,25.0511834 L82.5158327,14.311832 L79.7451321,14.311832 Z M75.6509617,14.311832 L78.3902779,14.311832 L78.3902779,28.2630406 L75.6509617,28.2630406 L75.6509617,14.311832 Z M77.0520041,9.61958336 C77.8934586,9.61958336 78.579768,10.3058928 78.579768,11.1473473 C78.579768,11.9888018 77.8934586,12.6745191 77.0520041,12.6745191 C76.2105496,12.6745191 75.5242401,11.9888018 75.5242401,11.1473473 C75.5242401,10.3058928 76.2105496,9.61958336 77.0520041,9.61958336 Z M69.7074862,8.8065524 C71.0173366,8.18182723 72.4995044,7.41202369 73.6518411,7.33978059 L73.6518411,28.2636327 L70.9119327,28.2636327 L70.9119327,10.9673317 C70.9119327,9.90441067 70.5495329,9.03157189 69.7714391,9.01499151 C69.6713647,9.01203073 69.5949765,8.85984649 69.7074862,8.8065524 Z M56.6285248,21.4313303 C56.6533954,23.567239 57.255618,25.2815323 58.4843429,26.6055944 C59.7379383,27.9586721 61.2171454,28.63906 62.9728896,28.6236639 C64.8032456,28.60886 66.4683898,27.9438682 67.7213931,26.5594061 C69.0265062,25.1169128 69.5351687,23.2954392 69.5179961,21.1607148 C69.5097059,20.1368761 69.4670707,19.1669236 69.1005258,18.2425672 C68.7150318,17.2708383 68.1832752,16.4613603 67.5763148,15.8064351 C66.9296798,15.1076904 66.2019194,14.6854828 65.5558766,14.4225652 C64.8725279,14.1442517 63.813752,14.0015419 62.9610465,14.0015419 C61.0797651,14.0015419 59.7243187,14.5143495 58.4446684,15.8982194 C57.1662024,17.2820893 56.6285248,19.2362059 56.6285248,21.4313303 Z M66.563727,21.7807027 C66.5412251,23.3789332 66.22679,24.6710189 65.5949589,25.6913046 C64.9424024,26.7459355 64.0192303,27.2723626 62.9835485,27.2563744 C61.8797686,27.2392019 60.9133691,26.585461 60.2590361,25.2264617 C59.6526678,23.9669447 59.6716168,22.4610906 59.6716168,20.7610091 C59.6716168,19.1278413 59.8634755,17.8511517 60.4828713,16.8154699 C61.124769,15.7418901 62.0811019,15.2172393 63.1167837,15.2172393 C64.2649753,15.2172393 65.1277474,15.8905214 65.7743823,17.2572187 C66.3671311,18.5090377 66.563727,20.0125232 66.563727,21.7807027 Z M37.9815147,15.5589137 C39.1575376,15.7786038 39.1895141,16.8794228 39.1895141,18.1134771 L39.1895141,28.2636327 L41.8690225,28.2636327 L41.8690225,16.9789051 C42.7081084,16.4353054 43.6804294,15.6880038 44.6308407,15.6897803 C45.6576402,15.6915568 45.8364715,17.447301 45.8364715,18.3379044 L45.8364715,28.2636327 L48.5497328,28.2636327 L48.5497328,16.9854188 C49.5238304,16.3535878 49.8696498,15.7270861 51.2884569,15.7572861 C52.298676,15.7791959 52.449676,16.9410071 52.449676,17.7368655 L52.449676,28.2636327 L55.229851,28.2636327 L55.229851,17.9897164 C55.229851,16.2055486 54.813565,14.0021341 52.2542643,14.0021341 C50.7880847,14.0021341 50.1532928,14.3124241 48.421827,15.7519567 C48.1091684,14.8761572 46.7596436,14.0021341 45.8192989,14.0021341 C43.996641,14.0021341 43.0645866,14.8998434 41.935344,15.6116156 L41.9359362,14.0021341 C41.1187601,14.0021341 39.1557611,14.311832 37.9815147,15.5589137 Z M32.9641721,8.8065524 C34.2740224,8.18182723 35.7567825,7.41202369 36.9091191,7.33978059 L36.9091191,28.2636327 L34.1692107,28.2636327 L34.1692107,10.9673317 C34.1692107,9.90441067 33.8068109,9.03157189 33.0287172,9.01499151 C32.9286427,9.01203073 32.8522545,8.85984649 32.9641721,8.8065524 Z M29.465119,28.2636327 L32.1943686,28.2636327 L32.1943686,14.6452161 C31.6140552,14.209981 29.5912483,14.1460281 29.1329192,14.1460281 C23.9876708,14.1460281 19.9515317,17.3691363 19.9515317,23.0656824 C19.9515317,27.281245 23.1047654,28.6242561 25.1779055,28.6242561 C27.210779,28.6242561 28.3370607,27.7833938 28.8226291,27.1000451 C28.9682996,26.8963432 28.8652644,26.5493395 28.6005704,26.5866453 C28.2612647,26.6352022 27.7981983,27.5098174 26.1146972,27.5560056 C25.2655446,27.5790997 24.5644313,27.2380176 24.1641334,26.9650334 C23.2865574,26.3681396 22.6008401,24.4714621 22.5795225,22.9436982 C22.5380715,20.0267349 24.132157,15.5624666 27.5708101,15.268757 C28.0107825,15.2314511 28.9315859,15.1029531 29.3330681,15.3036942 C29.6842169,15.4795647 29.4657111,15.5565451 29.4657111,15.8028822 L29.4657111,28.2636327 L29.465119,28.2636327 Z M11.0976067,28.306268 L11.0976067,7.90173717 C11.8608965,7.59618438 12.5335864,7.38833743 13.2270017,7.38596881 C16.2333806,7.37530999 18.4515991,9.77295191 18.4071873,13.4940637 C18.3550776,17.8464145 16.1848238,19.4570803 14.5297462,19.5719587 C12.6188569,19.7040096 12.2990924,19.0307276 11.620481,19.0526374 C11.333285,19.0621119 10.9880578,19.3108177 11.4907987,19.7590802 C12.4483159,20.6135621 14.3473619,20.6378405 15.4831182,20.590468 C18.1709169,20.4791426 21.2755937,17.7487087 21.3253349,13.3329972 C21.3667858,9.66636373 18.6031912,6.3023223 13.9435112,6.28811054 C12.3334375,6.28337329 9.55030163,6.59840058 8.15695724,6.9661298 L8.15695724,28.2772523 L11.0976067,28.306268 Z" id="path9" fill="#FFFFFF"></path>
                <polygon id="polygon11" fill="#939598" points="0 0 0 0 110.784795 0 110.784795 1.425913 0 1.425913"></polygon>
                <polygon id="polygon13" fill="#939598" points="0 34.9899391 0 34.9899391 110.784795 34.9899391 110.784795 33.5640261 0 33.5640261"></polygon>
            </g>
        </g>
    </g>
</svg>