<?xml version="1.0" encoding="UTF-8"?>
<svg width="94px" height="76px" viewBox="0 0 94 76" version="1.1" xmlns="http://www.w3.org/2000/svg" xmlns:xlink="http://www.w3.org/1999/xlink">
    <!-- Generator: Sketch 48.2 (47327) - http://www.bohemiancoding.com/sketch -->
    <title>qantas</title>
    <desc>Created with Sketch.</desc>
    <defs>
        <linearGradient x1="54.6682519%" y1="1.13165329%" x2="1.79938427%" y2="100.013211%" id="linearGradient-1">
            <stop stop-color="#C10103" offset="0%"></stop>
            <stop stop-color="#FE0000" offset="100%"></stop>
        </linearGradient>
        <linearGradient x1="-31.8111028%" y1="33.044877%" x2="-31.8110847%" y2="76.8797857%" id="linearGradient-2">
            <stop stop-color="#FFFFFF" offset="0%"></stop>
            <stop stop-color="#FFFFFF" offset="64.999998%"></stop>
            <stop stop-color="#A2A5A3" offset="95%"></stop>
            <stop stop-color="#A2A5A3" offset="100%"></stop>
        </linearGradient>
        <linearGradient x1="-10.7904384%" y1="60.4043118%" x2="66.1047525%" y2="60.4043118%" id="linearGradient-3">
            <stop stop-color="#FFFFFF" offset="0%"></stop>
            <stop stop-color="#A2A5A3" offset="73.160708%"></stop>
            <stop stop-color="#A2A5A3" offset="100%"></stop>
        </linearGradient>
        <linearGradient x1="24.6559394%" y1="47.2321963%" x2="111.223457%" y2="47.2321963%" id="linearGradient-4">
            <stop stop-color="#FFFFFF" offset="0%"></stop>
            <stop stop-color="#FFFFFF" offset="25%"></stop>
            <stop stop-color="#A2A5A3" offset="100%"></stop>
        </linearGradient>
    </defs>
    <g id="Hydroshield-Wire-Copy" stroke="none" stroke-width="1" fill="none" fill-rule="evenodd" transform="translate(-130.000000, -1578.000000)">
        <g id="logos" transform="translate(130.000000, 1571.746094)" fill-rule="nonzero">
            <g id="qantas" transform="translate(0.000000, 4.912783)">
                <g id="g3344" transform="translate(47.353391, 38.889593) scale(-1, 1) rotate(-180.000000) translate(-47.353391, -38.889593) translate(0.011793, 0.345991)">
                    <g id="g3182" transform="translate(0.059514, 0.027078)">
                        <g id="g3500" transform="translate(0.205716, 14.930686)">
                            <path d="M0.0966125509,60.7733411 L0.0937493912,60.7733411 L0.867909589,58.7457946 L4.30245094,49.7385615 L23.0757021,0.475294048 L84.9189774,0.475294048 L35.363868,50.2454458 C28.7620517,56.8503447 19.800906,60.7733411 10.4649631,60.7733411 L0.0968225159,60.7733411 L0.0966125509,60.7733411 Z" id="path3406" fill="url(#linearGradient-1)"></path>
                            <path d="M4.30131522,49.7382561 C11.0720961,38.17509 28.8407886,36.9554889 30.7731064,18.9748272 C30.8529886,18.2375349 31.4182336,17.6446318 32.1555258,17.5278912 C42.3946429,15.9273564 52.3664935,11.7125181 61.0327243,4.76662638 L61.0384506,4.76090006 C61.0968591,4.71480319 61.1551912,4.6933295 61.2319907,4.6933295 C61.3088188,4.6933295 61.3855992,4.72100671 61.447033,4.77626569 C61.5699199,4.89606983 61.572993,5.08960988 61.4565769,5.21249669 C55.4568831,11.519398 48.1239113,16.5606205 39.8939115,19.8722846 L37.3902025,20.8799068 C36.0999386,21.3990835 35.2059743,22.6770548 35.2459154,24.1485662 C35.3841583,29.518489 48.090126,28.427921 49.3773071,31.0084295 L49.5984958,31.4538799 C46.9841828,33.6903226 43.8752782,35.3707301 40.4530198,36.3107817 C40.4222885,36.1817487 40.3393619,35.5550603 41.0336399,34.4214686 C41.7924345,33.1865114 40.2072653,31.226545 37.8970867,33.3431835 L37.7035467,33.5182944 C20.5369766,49.2471479 7.66819056,41.0908745 0.866687974,58.7458996 L4.30122932,49.7386761 L4.30131522,49.7382561 Z" id="path3418" fill="#FFFFFF"></path>
                            <path d="M39.8426991,32.4061 L39.8426991,28.120599 C41.6951348,28.6551318 43.8025539,28.9869147 45.5781997,29.3586388 L45.5781997,31.7456073 C45.5781997,31.7456073 42.76421,31.6073644 41.0377247,34.4213636 C41.5507552,33.5826964 40.9824657,32.4091731 39.8426991,32.4061" id="path3482" fill="url(#linearGradient-2)"></path>
                            <path d="M34.2792268,17.1564822 C43.7687686,15.3316855 52.9664591,11.2335879 61.0305674,4.76693179 C48.127996,15.792492 40.2635645,17.4728995 36.6416294,17.4728995 C35.2161958,17.4728995 34.4451183,17.2117793 34.2792268,17.1564822" id="path3542" fill="url(#linearGradient-3)"></path>
                            <path d="M0.867699624,58.7457946 L4.30224097,49.7385615 C11.0699487,38.1753954 28.8386412,36.9557943 30.7740227,18.9812788 C28.8171389,41.9232905 18.7408402,38.4948858 7.91495675,48.9336892 C5.12246941,50.9212946 2.76007637,53.8335956 0.867699624,58.7457946 Z" id="path3602" fill="url(#linearGradient-4)"></path>
                        </g>
                        <g id="g3487" transform="translate(20.850597, 0.143122)" fill="#221F20">
                            <g id="g3160">
                                <path d="M6.42724688,2.31695032 C8.4776653,2.31695032 10.2034918,3.33130882 10.2034918,4.72310127 C10.2034918,6.11489665 8.4776653,7.12925515 6.42724688,7.12925515 C4.37682554,7.12925515 2.65100197,6.11489665 2.65100197,4.72310127 C2.65100197,3.33130882 4.37682554,2.31695032 6.42724688,2.31695032 Z M6.31967789,0.321255933 C2.56419046,0.321255933 0.179740921,2.27354457 0.179740921,4.72310127 C0.179740921,7.21512274 2.704785,9.12494661 6.42724688,9.12494661 C10.1497058,9.12494661 12.6747528,7.20474253 12.6747528,4.82029299 C12.6747528,3.75214852 12.2001272,2.87744064 11.2933377,2.14427123 L13.5051111,2.14427123 L12.9766994,1.23748172 C12.6417273,0.665667269 12.2322088,0.321255933 11.3471207,0.321255933 L6.31967789,0.321255933 Z" id="path3674"></path>
                                <path d="M17.8199573,3.59013399 L21.7254726,3.59013399 L19.9128375,6.81626586 C19.8703757,6.89175324 19.8373501,6.91345758 19.7731869,6.91345758 C19.7080797,6.91345758 19.6759981,6.89176496 19.6325924,6.81626586 L17.8199573,3.59013399 Z M22.7294538,1.80958053 L16.81692,1.80958053 L15.9752406,0.32059636 L13.5256809,0.32059636 L17.6255768,7.42016487 C17.9492277,7.98159911 18.4134731,8.41281903 19.3410231,8.41281903 L20.2581928,8.41281903 C21.1866837,8.41281903 21.6499852,7.98159911 21.9736391,7.42016487 L26.0735349,0.32059636 L23.5711332,0.32059636 L22.7294538,1.80958053 Z" id="path3678"></path>
                                <path d="M37.7473406,8.41300957 L37.7473406,0.320783972 L35.5572686,0.320783972 L29.1267063,5.68320478 L29.1267063,0.320783972 L26.9356904,0.320783972 L26.9356904,8.41300957 L28.3067283,8.41300957 C29.0078131,8.41300957 29.3635486,8.2299532 29.7626869,7.88459794 L35.5572686,3.06096898 L35.5572686,8.41300957 L37.7473406,8.41300957 Z" id="path3682"></path>
                                <polygon id="path3686" points="45.5364822 6.58952232 45.5364822 0.320314943 43.3464102 0.320314943 43.3464102 6.58952232 38.8577563 6.58952232 38.8577563 8.41253761 50.025139 8.41253761 50.025139 6.58952232"></polygon>
                                <path d="M52.4088352,3.59013399 L56.3143505,3.59013399 L54.5017154,6.81626586 C54.4583097,6.89175324 54.4262281,6.91345758 54.3620648,6.91345758 C54.2969577,6.91345758 54.2648731,6.89176496 54.2214703,6.81626586 L52.4088352,3.59013399 Z M57.3183288,1.80958053 L51.4057979,1.80958053 L50.5641156,0.32059636 L48.1145589,0.32059636 L52.2144547,7.42016487 C52.5381056,7.98159911 53.0023511,8.41281903 53.929901,8.41281903 L54.8470707,8.41281903 C55.7755616,8.41281903 56.2388631,7.98159911 56.5625141,7.42016487 L60.6624099,0.32059636 L58.1600111,0.32059636 L57.3183288,1.80958053 Z" id="path3690"></path>
                                <path d="M61.4171898,0.903450598 L61.2124291,0.968560695 L61.7625422,2.72646589 C63.3373939,2.2197586 65.0207557,2.01500082 66.5418244,2.01500082 C69.0347868,2.01500082 69.6500071,2.30657011 69.6500071,2.61889689 C69.6500071,2.74817023 69.5631955,2.84535902 69.368818,2.91046619 C69.1206544,2.99633377 68.4299468,3.13692831 66.3908496,3.47095944 C64.1356705,3.83801611 63.1222559,4.02201641 62.3777624,4.36736873 C61.6332718,4.71178007 61.1794036,5.2628341 61.1794036,6.0714909 C61.1794036,6.6867111 61.482297,7.18304111 61.9673,7.5717992 C62.8306866,8.24080244 64.3083467,8.5097264 65.916224,8.5097264 C67.9883467,8.5097264 69.7254944,8.33705023 71.6560787,7.86242457 L71.8287549,7.8086386 L71.3654533,6.09319524 C69.207463,6.5574407 68.0100481,6.6867111 66.3700892,6.70841545 C65.2151362,6.71879273 64.4168596,6.63292807 63.9960199,6.50365473 C63.7582336,6.42722343 63.6610448,6.31965443 63.6610448,6.19038403 C63.6610448,6.0714909 63.7365322,5.9639219 63.9743155,5.88843452 C64.2328593,5.80162594 64.6537019,5.70443423 66.8654753,5.34870169 C69.261249,4.95994361 70.0491453,4.79858865 70.7068274,4.53910097 C71.6022928,4.19469257 72.1420256,3.55776802 72.1420256,2.75949144 C72.1420256,1.75551315 71.3654533,1.01102253 70.0161198,0.601504026 C69.1857616,0.353340486 68.0742114,0.212743013 66.8230135,0.212743013 C64.8594036,0.212743013 62.7655765,0.472230685 61.4171898,0.903450598" id="path3694"></path>
                            </g>
                        </g>
                    </g>
                </g>
            </g>
        </g>
    </g>
</svg>