<?xml version="1.0" encoding="UTF-8"?>
<svg width="139px" height="42px" viewBox="0 0 139 42" version="1.1" xmlns="http://www.w3.org/2000/svg" xmlns:xlink="http://www.w3.org/1999/xlink">
    <!-- Generator: Sketch 48.2 (47327) - http://www.bohemiancoding.com/sketch -->
    <title>star</title>
    <desc>Created with Sketch.</desc>
    <defs></defs>
    <g id="Hydroshield-Wire-Copy" stroke="none" stroke-width="1" fill="none" fill-rule="evenodd" transform="translate(-416.000000, -1590.000000)">
        <g id="logos" transform="translate(130.000000, 1571.746094)" fill="#C5A54C" fill-rule="nonzero">
            <g id="star" transform="translate(286.563297, 18.530850)">
                <path d="M69.0167861,13.3044407 L67.2151431,11.1563279 L69.0167861,9.00821505 L73.1051299,11.1563279 L69.0167861,13.3044407 Z M70.1254895,18.3628999 L65.8292639,16.9770207 C65.9678518,16.6305509 66.0371457,16.2840811 66.1064397,16.0069052 C66.2450276,15.3139656 66.3143216,14.6903199 66.2450276,14.2052622 L68.7396103,13.9973803 L70.1254895,18.3628999 Z M65.0670303,15.8683173 C65.0670303,16.0069052 64.9977363,16.2147871 64.9284424,16.353375 L63.2653873,14.8982018 L63.9583269,13.5123226 L65.0670303,13.8587924 C65.2056182,14.4131441 65.2056182,15.1060837 65.0670303,15.8683173 Z M62.9882114,21.2732463 L60.8400986,17.1849026 L62.9882114,15.3832596 L64.7898544,16.9077267 C64.1662088,19.0558395 62.9882114,21.2732463 62.9882114,21.2732463 Z M60.4936288,14.0666743 L62.018096,13.5816165 L62.7110356,14.9674958 L60.7015107,16.6305509 L60.4936288,14.0666743 Z M60.147159,13.6509105 L57.5139884,13.4430286 L59.1770435,11.4335037 L60.5629228,12.1264433 L60.147159,13.6509105 Z M55.7816394,18.3628999 L57.1675186,13.9280864 L59.9392771,14.1359682 L60.147159,16.9077267 L55.7816394,18.3628999 Z M52.871293,11.1563279 L56.9596367,9.00821505 L58.7612797,11.1563279 L56.9596367,13.3044407 L52.871293,11.1563279 Z M55.7816394,4.01904979 L60.077865,5.40492903 C59.9392771,5.75139884 59.8699831,6.09786865 59.8006892,6.3750445 C59.6621012,7.06798412 59.5928073,7.69162978 59.6621012,8.17668751 C59.3849254,8.17668751 57.1675186,8.3845694 57.1675186,8.3845694 L55.7816394,4.01904979 Z M60.9093926,6.44433846 C60.9786865,6.23645658 60.9786865,6.09786865 61.0479805,5.95928073 L62.7110356,7.41445393 L62.018096,8.80033317 L60.9093926,8.45386336 C60.7708046,7.89951166 60.7708046,7.20657204 60.9093926,6.44433846 Z M62.9882114,1.03940943 L65.1363242,5.12775319 L62.9882114,6.9293962 L61.1865684,5.40492903 C61.8102141,3.11822829 62.9882114,1.03940943 62.9882114,1.03940943 Z M65.4827941,8.31527544 L63.9583269,8.80033317 L63.2653873,7.41445393 L65.2749122,5.75139884 L65.4827941,8.31527544 Z M63.1960933,10.6019762 C62.018096,10.1169184 61.2558624,9.63186071 60.9786865,8.86962713 L62.018096,9.21609694 C62.0873899,9.21609694 62.2259778,9.21609694 62.2259778,9.14680298 L62.9189175,7.76092374 L63.6118571,9.14680298 C63.681151,9.21609694 63.750445,9.2853909 63.819739,9.21609694 L65.3442061,8.73103921 L64.8591484,10.2555064 C64.8591484,10.3248003 64.8591484,10.4633883 64.9284424,10.4633883 L66.3143216,11.1563279 L65.2749122,11.7799735 C64.7898544,11.2949158 64.0969148,10.948446 63.1960933,10.6019762 Z M60.4243348,10.2555064 L59.1770435,10.879152 L57.5139884,8.86962713 L59.8006892,8.66174525 C59.8699831,9.2853909 60.077865,9.77044864 60.4243348,10.2555064 Z M60.9093926,11.9185615 L59.5235133,11.2256218 L60.7015107,10.6019762 C61.1865684,11.0870339 61.879508,11.4335037 62.7110356,11.8492675 C63.8890329,12.3343252 64.6512665,12.819383 64.9284424,13.5816165 L63.9583269,13.1658528 C63.8890329,13.1658528 63.750445,13.1658528 63.750445,13.2351467 L63.0575054,14.621026 L62.3645658,13.2351467 C62.3645658,13.1658528 62.2952718,13.1658528 62.2259778,13.1658528 C62.2259778,13.1658528 62.1566839,13.1658528 62.1566839,13.1658528 L60.6322167,13.6509105 L61.1172744,12.1264433 C61.0479805,12.0571494 60.9786865,11.9185615 60.9093926,11.9185615 Z M65.552088,12.0571494 L66.7993793,11.4335037 L68.4624344,13.4430286 L66.1757337,13.6509105 C66.1064397,13.0272648 65.8985578,12.5422071 65.552088,12.0571494 Z M65.8292639,8.66174525 L68.4624344,8.86962713 L66.7300854,10.879152 L65.3442061,10.1862124 L65.8292639,8.66174525 Z M70.1254895,4.01904979 L68.7396103,8.45386336 L65.9678518,8.24598147 L65.7599699,5.47422299 L70.1254895,4.01904979 Z M74.0059514,10.879152 L69.4325499,8.52315732 L71.026311,3.60328602 C71.095605,3.4646981 71.026311,3.39540414 70.957017,3.25681621 C70.8877231,3.18752225 70.7491352,3.11822829 70.6105472,3.18752225 L65.6906759,4.78128338 L63.3346812,0.207881886 C63.1960933,0.069293962 63.1267993,0 62.9882114,0 C62.8496235,0 62.7803295,0.069293962 62.7110356,0.138587924 C62.7110356,0.138587924 61.1865684,2.42528867 60.3550409,4.71198941 L55.4351696,3.18752225 C55.2965816,3.11822829 55.2272877,3.18752225 55.0886998,3.25681621 C55.0194058,3.32611017 54.9501118,3.4646981 55.0194058,3.60328602 L56.6131669,8.52315732 L51.9704715,10.879152 C51.8318835,10.948446 51.8318835,11.01774 51.8318835,11.1563279 C51.8318835,11.2949158 51.9011775,11.3642098 51.9704715,11.4335037 L56.543873,13.7894984 L55.0194058,18.7093697 C54.9501118,18.8479577 55.0194058,18.9172516 55.0886998,19.0558395 C55.1579937,19.1251335 55.2965816,19.1944275 55.4351696,19.1251335 L60.3550409,17.6006663 L62.7110356,22.1740678 C62.7803295,22.3126558 62.8496235,22.3126558 62.9882114,22.3126558 C63.1267993,22.3126558 63.1960933,22.2433618 63.2653873,22.1047739 C63.2653873,22.1047739 64.7898544,19.8180731 65.621382,17.5313724 L70.5412533,19.1251335 C70.6798412,19.1944275 70.7491352,19.1251335 70.8877231,19.0558395 C70.957017,18.9865456 71.026311,18.8479577 70.957017,18.7093697 L69.3632559,13.7894984 L73.9366574,11.4335037 C74.0752453,11.3642098 74.0752453,11.2949158 74.0752453,11.1563279 C74.1445393,11.01774 74.0752453,10.948446 74.0059514,10.879152 Z" id="Shape"></path>
                <g id="Group" transform="translate(0.000000, 4.850577)">
                    <polygon id="Shape" points="8.31527544 0.831527544 8.31527544 2.42528867 11.5027977 2.42528867 11.5027977 11.7799735 13.3044407 11.7799735 13.3044407 2.42528867 16.4919629 2.42528867 16.4919629 0.831527544"></polygon>
                    <polygon id="Shape" points="29.6578157 11.7799735 29.6578157 6.9293962 24.6686505 6.9293962 24.6686505 11.7799735 22.7977135 11.7799735 22.7977135 0.831527544 24.6686505 0.831527544 24.6686505 5.19704715 29.6578157 5.19704715 29.6578157 0.831527544 31.5287527 0.831527544 31.5287527 11.7799735"></polygon>
                    <polygon id="Shape" points="45.595427 2.42528867 40.7448496 2.42528867 40.7448496 5.33563507 45.3182511 5.33563507 45.3182511 6.9293962 40.7448496 6.9293962 40.7448496 10.1169184 45.7340149 10.1169184 45.7340149 11.7799735 38.9432066 11.7799735 38.9432066 0.831527544 45.595427 0.831527544"></polygon>
                    <path d="M81.2818174,8.66174525 C81.3511113,9.90903656 82.7369906,10.3248003 83.9149879,10.3248003 C85.0929853,10.3248003 86.4788645,9.97833052 86.4788645,8.59245128 C86.4788645,7.13727808 85.0236913,6.99869016 83.707106,6.86010223 C81.6975812,6.72151431 79.6880563,6.02857469 79.6880563,3.88046187 C79.6880563,1.59376113 81.6975812,0.554351696 83.7764,0.554351696 C85.8552189,0.554351696 87.8647438,1.52446716 87.8647438,3.74187395 L86.1323947,3.74187395 C86.0631008,2.56387659 84.8158094,2.21740678 83.707106,2.21740678 C82.7369906,2.21740678 81.4204053,2.63317055 81.4204053,3.88046187 C81.4204053,5.12775319 82.6676966,5.26634111 83.9149879,5.47422299 C86.1323947,5.75139884 88.2112136,6.16716261 88.2112136,8.66174525 C88.2112136,11.0870339 85.9245128,11.9878554 83.9149879,11.9878554 C81.7668751,12.0571494 79.5494683,10.948446 79.4801744,8.66174525 L81.2818174,8.66174525 Z" id="Shape"></path>
                    <polygon id="Shape" points="93.9626124 2.42528867 93.9626124 0.831527544 102.070006 0.831527544 102.070006 2.42528867 98.9517777 2.42528867 98.9517777 11.7799735 97.1501347 11.7799735 97.1501347 2.42528867"></polygon>
                    <path d="M109.623048,7.96880563 L113.434216,7.96880563 L111.493985,3.60328602 L109.623048,7.96880563 Z M108.999402,9.49327279 L107.959993,11.7799735 L106.019762,11.7799735 L106.019762,11.5720916 L111.078221,0.762233582 L111.909749,0.762233582 L116.968208,11.5720916 L116.968208,11.7799735 L115.097271,11.7799735 L113.988567,9.49327279 L108.999402,9.49327279 Z" id="Shape"></path>
                    <g transform="translate(0.000000, 0.692940)" id="Shape">
                        <path d="M127.570184,5.75139884 C128.748181,5.75139884 129.649003,4.9198713 129.649003,3.67257998 C129.649003,2.49458263 128.817475,1.66305509 127.570184,1.66305509 L124.867719,1.66305509 L124.867719,5.75139884 L127.570184,5.75139884 Z M131.935704,10.8098581 L131.935704,11.0870339 L130.064767,11.0870339 L127.362302,7.27586601 L124.937013,7.27586601 L124.937013,11.0870339 L123.13537,11.0870339 L123.13537,0.138587924 L127.639478,0.138587924 C129.995473,0.138587924 131.450646,1.73234905 131.450646,3.74187395 C131.450646,5.26634111 130.549824,6.51363242 129.163945,7.06798412 L131.935704,10.8098581 Z"></path>
                        <path d="M10.5443214,30.5586372 L10.5443214,35.8249783 L9.64349993,35.8249783 L9.57420597,33.6075716 C8.81197239,35.0627448 7.42609315,36.0328602 5.48586222,36.0328602 C2.36763393,36.0328602 0.0809331821,33.6075716 0.0809331821,30.6279312 C0.0809331821,27.5097029 2.50622185,25.0844142 5.55515618,25.0844142 C7.84185692,25.0844142 9.92067578,26.4702935 10.5443214,28.7569942 L9.36632408,28.7569942 C8.88126635,27.0246452 7.21821126,26.1238237 5.62445014,26.1238237 C3.12986751,26.1238237 1.18963657,27.9947606 1.18963657,30.6279312 C1.18963657,32.9839259 2.99127958,34.9934508 5.48586222,34.9934508 C7.703269,34.9934508 9.1584422,33.3996897 9.43561805,31.3208708 L5.41656825,31.3208708 L5.41656825,30.3507553 L10.5443214,30.3507553 L10.5443214,30.5586372 Z"></path>
                        <path d="M26.6205206,30.5586372 C26.6205206,28.1333486 24.6802897,26.1238237 22.255001,26.1238237 C19.8297123,26.1238237 17.8894814,28.1333486 17.8894814,30.5586372 C17.8894814,32.9839259 19.8297123,34.9934508 22.255001,34.9934508 C24.6802897,34.9934508 26.6205206,32.9839259 26.6205206,30.5586372 M27.729224,30.5586372 C27.729224,33.6075716 25.3039353,36.0328602 22.255001,36.0328602 C19.2060667,36.0328602 16.780778,33.6075716 16.780778,30.5586372 C16.780778,27.5097029 19.2060667,25.0844142 22.255001,25.0844142 C25.3039353,25.0844142 27.729224,27.5097029 27.729224,30.5586372"></path>
                    </g>
                    <polygon id="Shape" points="41.0336647 36.517918 34.0349745 36.517918 34.0349745 25.9852357 35.1436779 25.9852357 35.1436779 35.5478025 41.0336647 35.5478025"></polygon>
                    <g transform="translate(47.119894, 25.638766)" id="Shape">
                        <path d="M3.75351317,9.8397426 C6.31738976,9.8397426 8.18832673,8.03809959 8.18832673,5.54351696 C8.18832673,3.11822829 6.38668372,1.38587924 3.75351317,1.38587924 L1.18963657,1.38587924 L1.18963657,9.90903656 L3.75351317,9.90903656 L3.75351317,9.8397426 Z M3.75351317,0.34646981 C7.01032938,0.34646981 9.29703012,2.49458263 9.29703012,5.54351696 C9.29703012,8.66174525 7.01032938,10.879152 3.75351317,10.879152 L0.0809331821,10.879152 L0.0809331821,0.34646981 L3.75351317,0.34646981 Z"></path>
                        <path d="M29.2536912,7.20657204 L30.3623946,7.20657204 C29.8773368,9.49327279 27.9371059,11.0870339 25.3732293,11.0870339 C22.324295,11.0870339 19.8990063,8.73103921 19.8990063,5.61281092 C19.8990063,2.49458263 22.324295,0.138587924 25.3732293,0.138587924 C27.9371059,0.138587924 29.8773368,1.73234905 30.3623946,4.01904979 L29.2536912,4.01904979 C28.8379274,2.28670074 27.3827542,1.17799735 25.3732293,1.17799735 C22.9479406,1.17799735 21.0077097,3.04893433 21.0077097,5.61281092 C21.0077097,8.10739355 22.9479406,10.0476245 25.3732293,10.0476245 C27.3827542,10.0476245 28.8379274,8.93892109 29.2536912,7.20657204"></path>
                        <path d="M45.7456541,5.61281092 C45.7456541,3.18752225 43.8054232,1.17799735 41.3801345,1.17799735 C38.9548458,1.17799735 37.0146149,3.18752225 37.0146149,5.61281092 C37.0146149,8.03809959 38.9548458,10.0476245 41.3801345,10.0476245 C43.8054232,10.0476245 45.7456541,8.03809959 45.7456541,5.61281092 M46.8543575,5.61281092 C46.8543575,8.66174525 44.4290688,11.0870339 41.3801345,11.0870339 C38.3312002,11.0870339 35.9059115,8.66174525 35.9059115,5.61281092 C35.9059115,2.56387659 38.3312002,0.138587924 41.3801345,0.138587924 C44.3597749,0.138587924 46.8543575,2.56387659 46.8543575,5.61281092"></path>
                    </g>
                    <path d="M104.160464,27.2325271 L101.873763,32.4295742 L106.447165,32.4295742 L104.160464,27.2325271 Z M101.388706,33.4689836 L100.002826,36.517918 L98.8941229,36.517918 L103.675406,25.9159418 L104.714816,25.9159418 L109.496099,36.517918 L108.318102,36.517918 L106.932223,33.4689836 L101.388706,33.4689836 Z" id="Shape"></path>
                    <path d="M123.354892,28.8262882 L122.246188,28.8262882 C121.969012,27.5789969 121.068191,26.6781754 119.266548,26.6781754 C117.672787,26.6781754 116.633377,27.4404089 116.633377,28.6877003 C116.633377,29.6578157 117.395611,30.2121674 118.78149,30.4893433 L120.375251,30.7665191 C122.246188,31.1129889 123.285598,32.0138104 123.285598,33.4689836 C123.285598,35.4092146 121.691836,36.6565059 119.405136,36.6565059 C116.910553,36.6565059 115.247498,35.3399206 115.039616,33.0532199 L116.148319,33.0532199 C116.425495,34.7162749 117.534199,35.6170964 119.47443,35.6170964 C121.137485,35.6170964 122.176894,34.7855689 122.176894,33.5382776 C122.176894,32.6374561 121.553248,32.0138104 120.167369,31.7366346 L118.365726,31.3901648 C116.425495,31.043695 115.45538,30.0735795 115.45538,28.6184063 C115.45538,26.8167633 116.979847,25.6387659 119.197254,25.6387659 C121.414661,25.7773538 123.14701,26.7474693 123.354892,28.8262882" id="Shape"></path>
                    <polygon id="Shape" points="129.10629 25.9852357 129.10629 27.0246452 132.986752 27.0246452 132.986752 36.517918 134.095456 36.517918 134.095456 27.0246452 138.045211 27.0246452 138.045211 25.9852357"></polygon>
                </g>
            </g>
        </g>
    </g>
</svg>